<svg width="336" height="433" viewBox="0 0 336 433" fill="none" xmlns="http://www.w3.org/2000/svg">
<path d="M144 24.5C149 -9.5 189 -6.5 192 24.5V275.5L273.5 194C293.5 171 328.5 188.5 315 220L187.763 347.719C184.599 350.895 181.157 353.87 177.073 355.719C170.804 358.557 165.698 358.679 159.18 355.811C154.914 353.934 151.338 350.832 148.05 347.53L28 227C-2.06386 197.928 39.4538 166.939 60.5 192L144 276V24.5Z" fill="black"/>
<path d="M22.9999 386H311.5C346 386 342 433 311.5 433H22.9999C-7 432 -8.00001 386 22.9999 386Z" fill="black"/>
</svg>
