<svg width="176" height="231" viewBox="0 0 176 231" fill="none" xmlns="http://www.w3.org/2000/svg">
<path d="M123 36L166.329 2.48152C170.272 -0.569042 176 2.24164 176 7.22726V190.203C176 191.976 175.216 193.658 173.858 194.798L132.86 229.221C128.956 232.499 123.001 229.723 123.002 224.625L123.011 162C127.126 163.192 129.494 163.447 134 162V213L164 189.629V18.5L134 41.5V95C134 114.5 114 126 114 126C114 126 96.8517 138.5 95.1759 139.5C92.9885 134.053 87.6465 131.314 88 130.932C88 130.932 123 109 123 99.5V36Z" fill="black"/>
<path fill-rule="evenodd" clip-rule="evenodd" d="M80.5 160C89.0604 160 96 153.06 96 144.5C96 135.94 89.0604 129 80.5 129C71.9396 129 65 135.94 65 144.5C65 153.06 71.9396 160 80.5 160ZM80.5 151C84.0899 151 87 148.09 87 144.5C87 140.91 84.0899 138 80.5 138C76.9101 138 74 140.91 74 144.5C74 148.09 76.9101 151 80.5 151Z" fill="black"/>
<path fill-rule="evenodd" clip-rule="evenodd" d="M128.5 163C137.06 163 144 156.06 144 147.5C144 138.94 137.06 132 128.5 132C119.94 132 113 138.94 113 147.5C113 156.06 119.94 163 128.5 163ZM128.5 154C132.09 154 135 151.09 135 147.5C135 143.91 132.09 141 128.5 141C124.91 141 122 143.91 122 147.5C122 151.09 124.91 154 128.5 154Z" fill="black"/>
<path d="M53.5 195L10.1712 228.518C6.22782 231.569 0.5 228.758 0.5 223.773V40.7967C0.5 39.0238 1.28408 37.3417 2.64186 36.2016L43.64 1.77868C47.5442 -1.49934 53.4989 1.2768 53.4981 6.37463L53.4891 69C49.3741 67.8075 47.0058 67.5528 42.5 69V18L12.5 41.3711V212.5L42.5 189.5V136C42.5 116.5 62.5 105 62.5 105C62.5 105 79.6483 92.5 81.3241 91.5C83.6321 97.026 88.8718 99.7891 88.5 100.068C88.5 100.068 54.5 119 53.5 133V195Z" fill="black"/>
<path fill-rule="evenodd" clip-rule="evenodd" d="M96 71C87.4396 71 80.5 77.9396 80.5 86.5C80.5 95.0604 87.4396 102 96 102C104.56 102 111.5 95.0604 111.5 86.5C111.5 77.9396 104.56 71 96 71ZM96 80C92.4101 80 89.5 82.9101 89.5 86.5C89.5 90.0899 92.4101 93 96 93C99.5899 93 102.5 90.0899 102.5 86.5C102.5 82.9101 99.5899 80 96 80Z" fill="black"/>
<path fill-rule="evenodd" clip-rule="evenodd" d="M48 68C39.4396 68 32.5 74.9396 32.5 83.5C32.5 92.0604 39.4396 99 48 99C56.5604 99 63.5 92.0604 63.5 83.5C63.5 74.9396 56.5604 68 48 68ZM48 77C44.4101 77 41.5 79.9101 41.5 83.5C41.5 87.0899 44.4101 90 48 90C51.5899 90 54.5 87.0899 54.5 83.5C54.5 79.9101 51.5899 77 48 77Z" fill="black"/>
</svg>
