<svg width="374" height="133" viewBox="0 0 374 133" fill="none" xmlns="http://www.w3.org/2000/svg">
<path fill-rule="evenodd" clip-rule="evenodd" d="M342 66C359.673 66 374 51.6731 374 34C374 16.3269 359.673 2 342 2C324.327 2 310 16.3269 310 34C310 51.6731 324.327 66 342 66ZM341.5 54C352.27 54 361 45.2696 361 34.5C361 23.7304 352.27 15 341.5 15C330.73 15 322 23.7304 322 34.5C322 45.2696 330.73 54 341.5 54Z" fill="black"/>
<path fill-rule="evenodd" clip-rule="evenodd" d="M243 2H280.014C284.208 2 288.433 2.42979 292.353 3.92236C301.616 7.44953 303.921 11.8817 304 20.5C302.256 33.1147 297.87 36.3479 286.333 38L302.5 62H287.5L271.167 38H256V63H243V13.75V2ZM285 27H256V14L285 13.75C290.116 14.7566 291.939 16.8826 292.5 20.5C291.968 24.7833 289.794 26.1997 285 27Z" fill="black"/>
<path d="M191 3H215.506C220.755 3 226.114 4.02559 230.303 7.18824C235.232 10.9101 237.116 14.816 237.5 21.5C236.493 29.214 234.107 32.8702 229.658 35.7698C225.816 38.2742 221.126 39 216.54 39H191V26.5H220C223.576 25.0792 225.028 23.9253 225.5 20.5C224.699 17.1252 223.583 15.7923 220 14.75H191V3Z" fill="black"/>
<path d="M176.5 12.5L188.5 3V53L176.5 62.5V39H142L157.5 27H176.5V12.5Z" fill="black"/>
<path d="M128.5 12L141 2.5V52.5L128.5 62V12Z" fill="black"/>
<path d="M188.489 99.17C188.489 97.721 188.098 96.525 187.224 95.697C186.534 95.053 185.591 94.639 184.096 94.432L182.164 94.156C181.497 94.064 180.968 93.811 180.646 93.512C180.301 93.19 180.163 92.753 180.163 92.339C180.163 91.212 180.991 90.269 182.693 90.269C183.774 90.269 185.016 90.407 186.051 91.396L188.075 89.395C186.672 88.038 185.039 87.486 182.785 87.486C179.243 87.486 177.081 89.533 177.081 92.454C177.081 93.834 177.472 94.892 178.254 95.674C178.99 96.387 180.025 96.824 181.428 97.031L183.406 97.307C184.165 97.422 184.533 97.583 184.855 97.882C185.2 98.204 185.361 98.687 185.361 99.262C185.361 100.573 184.349 101.286 182.463 101.286C180.945 101.286 179.542 100.941 178.507 99.906L176.437 101.976C178.047 103.609 179.933 104.138 182.417 104.138C185.844 104.138 188.489 102.344 188.489 99.17ZM200.675 97.997C200.675 95.835 200.399 94.478 199.318 93.351C198.582 92.569 197.363 91.879 195.592 91.879C193.821 91.879 192.625 92.569 191.889 93.351C190.808 94.478 190.532 95.835 190.532 97.997C190.532 100.182 190.808 101.539 191.889 102.666C192.625 103.448 193.821 104.138 195.592 104.138C197.363 104.138 198.582 103.448 199.318 102.666C200.399 101.539 200.675 100.182 200.675 97.997ZM197.685 97.997C197.685 99.239 197.616 100.297 196.995 100.918C196.65 101.263 196.19 101.447 195.592 101.447C194.994 101.447 194.557 101.263 194.212 100.918C193.591 100.297 193.522 99.239 193.522 97.997C193.522 96.755 193.591 95.72 194.212 95.099C194.557 94.754 194.994 94.57 195.592 94.57C196.19 94.57 196.65 94.754 196.995 95.099C197.616 95.72 197.685 96.755 197.685 97.997ZM208.379 104V101.47H207.229C206.47 101.47 206.171 101.102 206.171 100.389V87.624H203.181V100.573C203.181 102.275 204.216 104 206.677 104H208.379ZM220.367 104V92.017H217.377V99.262C217.377 100.895 216.319 101.447 215.376 101.447C214.433 101.447 213.398 100.895 213.398 99.262V92.017H210.408V99.676C210.408 100.987 210.661 102.114 211.627 103.08C212.294 103.747 213.26 104.138 214.456 104.138C215.56 104.138 216.664 103.724 217.446 102.896V104H220.367ZM232.217 102.505L230.193 100.504C229.572 101.171 229.043 101.447 228.261 101.447C227.548 101.447 226.996 101.194 226.559 100.665C226.099 100.09 225.892 99.262 225.892 97.997C225.892 96.732 226.099 95.927 226.559 95.352C226.996 94.823 227.548 94.57 228.261 94.57C229.043 94.57 229.572 94.846 230.193 95.513L232.217 93.489C231.159 92.385 229.917 91.879 228.261 91.879C225.869 91.879 222.902 93.144 222.902 97.997C222.902 102.85 225.869 104.138 228.261 104.138C229.917 104.138 231.159 103.609 232.217 102.505ZM229.296 105.38H227.088L225.501 108.738H228.284L229.296 105.38ZM243.554 97.997C243.554 95.835 243.278 94.478 242.197 93.351C241.461 92.569 240.242 91.879 238.471 91.879C236.7 91.879 235.504 92.569 234.768 93.351C233.687 94.478 233.411 95.835 233.411 97.997C233.411 100.182 233.687 101.539 234.768 102.666C235.504 103.448 236.7 104.138 238.471 104.138C240.242 104.138 241.461 103.448 242.197 102.666C243.278 101.539 243.554 100.182 243.554 97.997ZM240.564 97.997C240.564 99.239 240.495 100.297 239.874 100.918C239.529 101.263 239.069 101.447 238.471 101.447C237.873 101.447 237.436 101.263 237.091 100.918C236.47 100.297 236.401 99.239 236.401 97.997C236.401 96.755 236.47 95.72 237.091 95.099C237.436 94.754 237.873 94.57 238.471 94.57C239.069 94.57 239.529 94.754 239.874 95.099C240.495 95.72 240.564 96.755 240.564 97.997ZM242.519 88.567L241.185 87.256C240.587 87.854 240.242 87.923 239.851 87.923C239.391 87.923 239.023 87.762 238.586 87.486C237.919 87.095 237.482 86.98 236.792 86.98C235.918 86.98 235.228 87.302 234.216 88.314L235.527 89.625C236.125 89.027 236.47 88.981 236.861 88.981C237.321 88.981 237.712 89.142 238.149 89.395C238.793 89.763 239.253 89.901 239.92 89.901C240.817 89.901 241.507 89.579 242.519 88.567ZM256.019 98.94V97.606C256.019 94.317 254.133 91.879 250.798 91.879C247.693 91.879 245.577 94.087 245.577 97.997C245.577 102.85 248.291 104.138 251.12 104.138C253.282 104.138 254.455 103.471 255.674 102.252L253.857 100.481C253.098 101.24 252.454 101.608 251.143 101.608C249.464 101.608 248.521 100.481 248.521 98.94H256.019ZM253.075 96.893H248.521C248.544 96.364 248.613 96.042 248.797 95.605C249.119 94.892 249.786 94.363 250.798 94.363C251.81 94.363 252.477 94.892 252.799 95.605C252.983 96.042 253.052 96.364 253.075 96.893ZM267.562 100.228C267.562 98.204 266.366 96.939 263.997 96.709L262.111 96.525C261.053 96.433 260.869 95.927 260.869 95.49C260.869 94.892 261.375 94.34 262.571 94.34C263.606 94.34 264.664 94.524 265.354 95.145L267.194 93.282C266.044 92.201 264.48 91.879 262.617 91.879C260.179 91.879 257.994 93.213 257.994 95.697C257.994 97.905 259.328 98.848 261.49 99.055L263.376 99.239C264.319 99.331 264.641 99.745 264.641 100.343C264.641 101.24 263.56 101.585 262.525 101.585C261.605 101.585 260.317 101.447 259.328 100.458L257.373 102.413C258.891 103.931 260.593 104.138 262.479 104.138C265.308 104.138 267.562 102.873 267.562 100.228ZM284.499 104V87.624H281.509V93.075C280.727 92.201 279.807 91.879 278.588 91.879C277.415 91.879 276.334 92.293 275.667 92.96C274.471 94.156 274.448 96.203 274.448 97.997C274.448 99.791 274.471 101.861 275.667 103.057C276.334 103.724 277.438 104.138 278.611 104.138C279.876 104.138 280.75 103.793 281.578 102.873V104H284.499ZM281.509 97.997C281.509 99.952 281.256 101.447 279.462 101.447C277.668 101.447 277.438 99.952 277.438 97.997C277.438 96.042 277.668 94.57 279.462 94.57C281.256 94.57 281.509 96.042 281.509 97.997ZM297.46 98.94V97.606C297.46 94.317 295.574 91.879 292.239 91.879C289.134 91.879 287.018 94.087 287.018 97.997C287.018 102.85 289.732 104.138 292.561 104.138C294.723 104.138 295.896 103.471 297.115 102.252L295.298 100.481C294.539 101.24 293.895 101.608 292.584 101.608C290.905 101.608 289.962 100.481 289.962 98.94H297.46ZM294.516 96.893H289.962C289.985 96.364 290.054 96.042 290.238 95.605C290.56 94.892 291.227 94.363 292.239 94.363C293.251 94.363 293.918 94.892 294.24 95.605C294.424 96.042 294.493 96.364 294.516 96.893ZM315.867 90.476V87.624H304.114V90.476H308.392V104H311.589V90.476H315.867ZM321.439 104V87.624H318.242V104H321.439ZM339.934 97.997C339.934 96.203 339.911 94.156 338.715 92.96C338.048 92.293 336.967 91.879 335.794 91.879C334.529 91.879 333.632 92.224 332.804 93.144V92.017H329.906V108.393H332.896V102.942C333.678 103.816 334.575 104.138 335.794 104.138C336.967 104.138 338.048 103.724 338.715 103.057C339.911 101.861 339.934 99.791 339.934 97.997ZM336.944 97.997C336.944 99.952 336.714 101.447 334.92 101.447C333.126 101.447 332.896 99.952 332.896 97.997C332.896 96.042 333.126 94.57 334.92 94.57C336.714 94.57 336.944 96.042 336.944 97.997ZM351.608 104V96.111C351.608 93.305 349.86 91.879 346.502 91.879C344.501 91.879 343.351 92.247 342.178 93.535L344.087 95.398C344.708 94.685 345.237 94.409 346.387 94.409C347.974 94.409 348.618 94.984 348.618 96.295V96.893H345.789C343.006 96.893 341.695 98.457 341.695 100.366C341.695 101.424 342.04 102.39 342.684 103.057C343.397 103.77 344.386 104.115 345.743 104.115C347.123 104.115 347.882 103.77 348.687 102.965V104H351.608ZM348.618 99.584C348.618 100.32 348.503 100.803 348.181 101.102C347.652 101.608 347.123 101.677 346.295 101.677C345.122 101.677 344.57 101.125 344.57 100.297C344.57 99.446 345.168 98.94 346.249 98.94H348.618V99.584ZM363.365 93.006C362.537 92.178 361.709 91.879 360.536 91.879C359.248 91.879 358.098 92.477 357.523 93.167V92.017H354.602V104H357.592V96.778C357.592 95.26 358.604 94.57 359.524 94.57C360.26 94.57 360.651 94.823 361.111 95.283L363.365 93.006ZM373.676 104V96.111C373.676 93.305 371.928 91.879 368.57 91.879C366.569 91.879 365.419 92.247 364.246 93.535L366.155 95.398C366.776 94.685 367.305 94.409 368.455 94.409C370.042 94.409 370.686 94.984 370.686 96.295V96.893H367.857C365.074 96.893 363.763 98.457 363.763 100.366C363.763 101.424 364.108 102.39 364.752 103.057C365.465 103.77 366.454 104.115 367.811 104.115C369.191 104.115 369.95 103.77 370.755 102.965V104H373.676ZM370.686 99.584C370.686 100.32 370.571 100.803 370.249 101.102C369.72 101.608 369.191 101.677 368.363 101.677C367.19 101.677 366.638 101.125 366.638 100.297C366.638 99.446 367.236 98.94 368.317 98.94H370.686V99.584ZM189.57 121.284V118.892H183.383V121.56H186.396V122.181C186.396 123.078 186.143 123.814 185.66 124.366C185.085 124.987 184.326 125.286 183.383 125.286C182.509 125.286 181.819 125.01 181.336 124.435C180.692 123.676 180.554 123.032 180.554 119.812C180.554 116.569 180.738 115.971 181.336 115.212C181.842 114.637 182.532 114.338 183.383 114.338C184.97 114.338 185.936 115.143 186.327 116.73H189.547C189.11 113.878 187.109 111.486 183.383 111.486C181.635 111.486 180.163 112.084 178.967 113.28C178.254 113.993 177.817 114.798 177.633 115.741C177.449 116.661 177.357 118.018 177.357 119.812C177.357 121.606 177.449 122.963 177.633 123.883C177.817 124.803 178.254 125.631 178.967 126.344C180.163 127.54 181.635 128.138 183.383 128.138C185.223 128.138 186.741 127.563 188.006 126.275C189.133 125.079 189.57 123.676 189.57 121.284ZM201.938 122.94V121.606C201.938 118.317 200.052 115.879 196.717 115.879C193.612 115.879 191.496 118.087 191.496 121.997C191.496 126.85 194.21 128.138 197.039 128.138C199.201 128.138 200.374 127.471 201.593 126.252L199.776 124.481C199.017 125.24 198.373 125.608 197.062 125.608C195.383 125.608 194.44 124.481 194.44 122.94H201.938ZM198.994 120.893H194.44C194.463 120.364 194.532 120.042 194.716 119.605C195.038 118.892 195.705 118.363 196.717 118.363C197.729 118.363 198.396 118.892 198.718 119.605C198.902 120.042 198.971 120.364 198.994 120.893ZM213.48 124.228C213.48 122.204 212.284 120.939 209.915 120.709L208.029 120.525C206.971 120.433 206.787 119.927 206.787 119.49C206.787 118.892 207.293 118.34 208.489 118.34C209.524 118.34 210.582 118.524 211.272 119.145L213.112 117.282C211.962 116.201 210.398 115.879 208.535 115.879C206.097 115.879 203.912 117.213 203.912 119.697C203.912 121.905 205.246 122.848 207.408 123.055L209.294 123.239C210.237 123.331 210.559 123.745 210.559 124.343C210.559 125.24 209.478 125.585 208.443 125.585C207.523 125.585 206.235 125.447 205.246 124.458L203.291 126.413C204.809 127.931 206.511 128.138 208.397 128.138C211.226 128.138 213.48 126.873 213.48 124.228ZM220.914 128V125.47H219.833C219.12 125.47 218.798 125.079 218.798 124.389V118.639H220.914V116.362H218.798V112.82H215.808V116.362H214.543V118.639H215.808V124.573C215.808 126.275 216.843 128 219.281 128H220.914ZM232.383 128V120.111C232.383 117.305 230.635 115.879 227.277 115.879C225.276 115.879 224.126 116.247 222.953 117.535L224.862 119.398C225.483 118.685 226.012 118.409 227.162 118.409C228.749 118.409 229.393 118.984 229.393 120.295V120.893H226.564C223.781 120.893 222.47 122.457 222.47 124.366C222.47 125.424 222.815 126.39 223.459 127.057C224.172 127.77 225.161 128.115 226.518 128.115C227.898 128.115 228.657 127.77 229.462 126.965V128H232.383ZM229.393 123.584C229.393 124.32 229.278 124.803 228.956 125.102C228.427 125.608 227.898 125.677 227.07 125.677C225.897 125.677 225.345 125.125 225.345 124.297C225.345 123.446 225.943 122.94 227.024 122.94H229.393V123.584ZM231.67 112.567L230.336 111.256C229.738 111.854 229.393 111.923 229.002 111.923C228.542 111.923 228.174 111.762 227.737 111.486C227.07 111.095 226.633 110.98 225.943 110.98C225.069 110.98 224.379 111.302 223.367 112.314L224.678 113.625C225.276 113.027 225.621 112.981 226.012 112.981C226.472 112.981 226.863 113.142 227.3 113.395C227.944 113.763 228.404 113.901 229.071 113.901C229.968 113.901 230.658 113.579 231.67 112.567ZM245.014 121.997C245.014 119.835 244.738 118.478 243.657 117.351C242.921 116.569 241.702 115.879 239.931 115.879C238.16 115.879 236.964 116.569 236.228 117.351C235.147 118.478 234.871 119.835 234.871 121.997C234.871 124.182 235.147 125.539 236.228 126.666C236.964 127.448 238.16 128.138 239.931 128.138C241.702 128.138 242.921 127.448 243.657 126.666C244.738 125.539 245.014 124.182 245.014 121.997ZM242.024 121.997C242.024 123.239 241.955 124.297 241.334 124.918C240.989 125.263 240.529 125.447 239.931 125.447C239.333 125.447 238.896 125.263 238.551 124.918C237.93 124.297 237.861 123.239 237.861 121.997C237.861 120.755 237.93 119.72 238.551 119.099C238.896 118.754 239.333 118.57 239.931 118.57C240.529 118.57 240.989 118.754 241.334 119.099C241.955 119.72 242.024 120.755 242.024 121.997ZM264.481 122.963H261.238C260.893 124.366 260.019 125.286 258.478 125.286C257.604 125.286 256.914 125.01 256.431 124.435C255.764 123.722 255.626 122.986 255.626 119.812C255.626 116.638 255.764 115.902 256.431 115.189C256.914 114.614 257.604 114.338 258.478 114.338C260.019 114.338 260.893 115.258 261.238 116.661H264.481C263.929 113.326 261.606 111.486 258.455 111.486C256.707 111.486 255.235 112.084 254.039 113.28C253.326 113.993 252.889 114.798 252.705 115.741C252.521 116.661 252.429 118.018 252.429 119.812C252.429 121.606 252.521 122.963 252.705 123.883C252.889 124.803 253.326 125.631 254.039 126.344C255.235 127.54 256.707 128.138 258.455 128.138C261.583 128.138 263.929 126.298 264.481 122.963ZM276.42 121.997C276.42 119.835 276.144 118.478 275.063 117.351C274.327 116.569 273.108 115.879 271.337 115.879C269.566 115.879 268.37 116.569 267.634 117.351C266.553 118.478 266.277 119.835 266.277 121.997C266.277 124.182 266.553 125.539 267.634 126.666C268.37 127.448 269.566 128.138 271.337 128.138C273.108 128.138 274.327 127.448 275.063 126.666C276.144 125.539 276.42 124.182 276.42 121.997ZM273.43 121.997C273.43 123.239 273.361 124.297 272.74 124.918C272.395 125.263 271.935 125.447 271.337 125.447C270.739 125.447 270.302 125.263 269.957 124.918C269.336 124.297 269.267 123.239 269.267 121.997C269.267 120.755 269.336 119.72 269.957 119.099C270.302 118.754 270.739 118.57 271.337 118.57C271.935 118.57 272.395 118.754 272.74 119.099C273.361 119.72 273.43 120.755 273.43 121.997ZM287.805 117.006C286.977 116.178 286.149 115.879 284.976 115.879C283.688 115.879 282.538 116.477 281.963 117.167V116.017H279.042V128H282.032V120.778C282.032 119.26 283.044 118.57 283.964 118.57C284.7 118.57 285.091 118.823 285.551 119.283L287.805 117.006ZM299.306 121.997C299.306 120.203 299.283 118.156 298.087 116.96C297.42 116.293 296.339 115.879 295.166 115.879C293.901 115.879 293.004 116.224 292.176 117.144V116.017H289.278V132.393H292.268V126.942C293.05 127.816 293.947 128.138 295.166 128.138C296.339 128.138 297.42 127.724 298.087 127.057C299.283 125.861 299.306 123.791 299.306 121.997ZM296.316 121.997C296.316 123.952 296.086 125.447 294.292 125.447C292.498 125.447 292.268 123.952 292.268 121.997C292.268 120.042 292.498 118.57 294.292 118.57C296.086 118.57 296.316 120.042 296.316 121.997ZM311.556 121.997C311.556 119.835 311.28 118.478 310.199 117.351C309.463 116.569 308.244 115.879 306.473 115.879C304.702 115.879 303.506 116.569 302.77 117.351C301.689 118.478 301.413 119.835 301.413 121.997C301.413 124.182 301.689 125.539 302.77 126.666C303.506 127.448 304.702 128.138 306.473 128.138C308.244 128.138 309.463 127.448 310.199 126.666C311.28 125.539 311.556 124.182 311.556 121.997ZM308.566 121.997C308.566 123.239 308.497 124.297 307.876 124.918C307.531 125.263 307.071 125.447 306.473 125.447C305.875 125.447 305.438 125.263 305.093 124.918C304.472 124.297 304.403 123.239 304.403 121.997C304.403 120.755 304.472 119.72 305.093 119.099C305.438 118.754 305.875 118.57 306.473 118.57C307.071 118.57 307.531 118.754 307.876 119.099C308.497 119.72 308.566 120.755 308.566 121.997ZM322.94 117.006C322.112 116.178 321.284 115.879 320.111 115.879C318.823 115.879 317.673 116.477 317.098 117.167V116.017H314.177V128H317.167V120.778C317.167 119.26 318.179 118.57 319.099 118.57C319.835 118.57 320.226 118.823 320.686 119.283L322.94 117.006ZM333.251 128V120.111C333.251 117.305 331.503 115.879 328.145 115.879C326.144 115.879 324.994 116.247 323.821 117.535L325.73 119.398C326.351 118.685 326.88 118.409 328.03 118.409C329.617 118.409 330.261 118.984 330.261 120.295V120.893H327.432C324.649 120.893 323.338 122.457 323.338 124.366C323.338 125.424 323.683 126.39 324.327 127.057C325.04 127.77 326.029 128.115 327.386 128.115C328.766 128.115 329.525 127.77 330.33 126.965V128H333.251ZM330.261 123.584C330.261 124.32 330.146 124.803 329.824 125.102C329.295 125.608 328.766 125.677 327.938 125.677C326.765 125.677 326.213 125.125 326.213 124.297C326.213 123.446 326.811 122.94 327.892 122.94H330.261V123.584ZM341.627 128V125.47H340.546C339.833 125.47 339.511 125.079 339.511 124.389V118.639H341.627V116.362H339.511V112.82H336.521V116.362H335.256V118.639H336.521V124.573C336.521 126.275 337.556 128 339.994 128H341.627ZM347.091 128V116.017H344.101V128H347.091ZM347.114 113.97V111.532H344.055V113.97H347.114ZM359.773 116.017H356.622L354.207 123.423L351.769 116.017H348.618L353.034 128H355.38L359.773 116.017ZM370.155 128V120.111C370.155 117.305 368.407 115.879 365.049 115.879C363.048 115.879 361.898 116.247 360.725 117.535L362.634 119.398C363.255 118.685 363.784 118.409 364.934 118.409C366.521 118.409 367.165 118.984 367.165 120.295V120.893H364.336C361.553 120.893 360.242 122.457 360.242 124.366C360.242 125.424 360.587 126.39 361.231 127.057C361.944 127.77 362.933 128.115 364.29 128.115C365.67 128.115 366.429 127.77 367.234 126.965V128H370.155ZM367.165 123.584C367.165 124.32 367.05 124.803 366.728 125.102C366.199 125.608 365.67 125.677 364.842 125.677C363.669 125.677 363.117 125.125 363.117 124.297C363.117 123.446 363.715 122.94 364.796 122.94H367.165V123.584Z" fill="black"/>
<path d="M69.6026 20.1282L89.8288 4.48152C93.7722 1.43096 99.5 4.24164 99.5 9.22726V105.896C99.5 107.669 98.7159 109.351 97.3581 110.491L79.4626 125.516C75.5584 128.794 69.6037 126.018 69.6044 120.92L69.6087 91.2052C71.93 91.8778 73.266 92.0215 75.8077 91.2052V119.974L92.7308 106.791V10.2564L75.8077 23.2308V53.4103C75.8077 64.4103 64.5256 70.8974 64.5256 70.8974C64.5256 70.8974 54.8522 77.9487 53.9069 78.5128C52.673 75.4402 49.6596 73.8953 49.859 73.6797C49.859 73.6797 69.6026 61.3077 69.6026 55.9487V20.1282Z" fill="black"/>
<path fill-rule="evenodd" clip-rule="evenodd" d="M45.6282 90.0769C50.4572 90.0769 54.3718 86.1623 54.3718 81.3334C54.3718 76.5044 50.4572 72.5898 45.6282 72.5898C40.7993 72.5898 36.8846 76.5044 36.8846 81.3334C36.8846 86.1623 40.7993 90.0769 45.6282 90.0769ZM45.6282 85C47.6532 85 49.2949 83.3584 49.2949 81.3334C49.2949 79.3083 47.6532 77.6667 45.6282 77.6667C43.6032 77.6667 41.9615 79.3083 41.9615 81.3334C41.9615 83.3584 43.6032 85 45.6282 85Z" fill="black"/>
<path fill-rule="evenodd" clip-rule="evenodd" d="M72.7051 91.7693C77.5341 91.7693 81.4487 87.8546 81.4487 83.0257C81.4487 78.1967 77.5341 74.2821 72.7051 74.2821C67.8762 74.2821 63.9615 78.1967 63.9615 83.0257C63.9615 87.8546 67.8762 91.7693 72.7051 91.7693ZM72.7051 86.6923C74.7302 86.6923 76.3718 85.0507 76.3718 83.0257C76.3718 81.0006 74.7302 79.359 72.7051 79.359C70.6801 79.359 69.0385 81.0006 69.0385 83.0257C69.0385 85.0507 70.6801 86.6923 72.7051 86.6923Z" fill="black"/>
<path d="M30.3974 109.821L5.95557 128.728C3.73108 130.449 0.5 128.864 0.5 126.051V22.8341C0.5 21.8339 0.942301 20.885 1.70823 20.242L24.8354 0.823869C27.0377 -1.02527 30.3968 0.540757 30.3964 3.41646L30.3913 38.7436C28.07 38.0709 26.734 37.9272 24.1923 38.7436V9.97436L7.26923 23.1581V119.692L24.1923 106.718V76.5385C24.1923 65.5385 35.4744 59.0513 35.4744 59.0513C35.4744 59.0513 45.1478 52 46.0931 51.4359C47.395 54.5532 50.3508 56.1118 50.141 56.2691C50.141 56.2691 30.9615 66.9487 30.3974 74.8462V109.821Z" fill="black"/>
<path fill-rule="evenodd" clip-rule="evenodd" d="M54.3718 39.8718C49.5428 39.8718 45.6282 43.7864 45.6282 48.6154C45.6282 53.4444 49.5428 57.359 54.3718 57.359C59.2007 57.359 63.1154 53.4444 63.1154 48.6154C63.1154 43.7864 59.2007 39.8718 54.3718 39.8718ZM54.3718 44.9487C52.3468 44.9487 50.7051 46.5904 50.7051 48.6154C50.7051 50.6404 52.3468 52.2821 54.3718 52.2821C56.3968 52.2821 58.0385 50.6404 58.0385 48.6154C58.0385 46.5904 56.3968 44.9487 54.3718 44.9487Z" fill="black"/>
<path fill-rule="evenodd" clip-rule="evenodd" d="M27.2949 38.1795C22.4659 38.1795 18.5513 42.0941 18.5513 46.9231C18.5513 51.752 22.4659 55.6667 27.2949 55.6667C32.1238 55.6667 36.0385 51.752 36.0385 46.9231C36.0385 42.0941 32.1238 38.1795 27.2949 38.1795ZM27.2949 43.2564C25.2698 43.2564 23.6282 44.898 23.6282 46.9231C23.6282 48.9481 25.2698 50.5898 27.2949 50.5898C29.3199 50.5898 30.9615 48.9481 30.9615 46.9231C30.9615 44.898 29.3199 43.2564 27.2949 43.2564Z" fill="black"/>
</svg>
