<svg width="30" height="30" viewBox="0 0 30 30" fill="none" xmlns="http://www.w3.org/2000/svg">
<path fill-rule="evenodd" clip-rule="evenodd" d="M5.6766 3.2495C8.6735 0.871617 12.4657 -0.27132 16.2775 0.0544989C20.0893 0.380318 23.6325 2.15027 26.1824 5.00227C28.7322 7.85428 30.096 11.5728 29.9947 15.3971C29.8935 19.2215 28.3348 22.8626 25.6375 25.5756C22.9403 28.2886 19.3083 29.8686 15.4846 29.9922C11.661 30.1158 7.93455 28.7737 5.06771 26.2405C2.20087 23.7074 0.41027 20.1745 0.0622094 16.3647C-0.285851 12.5549 0.834933 8.75607 3.19529 5.74534L4.76881 6.97895C3.03433 9.18826 2 11.9733 2 15C2 22.1797 7.8203 28 15 28C22.1797 28 28 22.1797 28 15C28 7.8203 22.1797 2 15 2C11.9461 2 9.13812 3.05305 6.9194 4.81583L5.6766 3.2495Z" fill="black"/>
<path fill-rule="evenodd" clip-rule="evenodd" d="M24.2646 20.9302C25.7293 18.6419 26.2954 15.8926 25.8537 13.2118C25.412 10.531 23.9938 8.10852 21.8724 6.41108C19.751 4.71364 17.0765 3.86134 14.3641 4.01839C11.6518 4.17545 9.09346 5.33075 7.18216 7.2617C5.27085 9.19265 4.14178 11.7626 4.01247 14.4765C3.88315 17.1903 4.76276 19.856 6.48181 21.9599C8.20085 24.0638 10.6377 25.4572 13.3229 25.8714C16.008 26.2856 18.7515 25.6915 21.0247 24.2035L19.9298 22.531C18.5138 23.4598 16.82 24 15 24C10.0294 24 6 19.9706 6 15C6 10.0294 10.0294 6 15 6C19.9706 6 24 10.0294 24 15C24 16.787 23.4792 18.4524 22.581 19.8526L24.2646 20.9302Z" fill="black"/>
<path d="M14.4116 9.184L14.4836 11.356H15.8276L15.8996 9.184H14.4116ZM14.4836 18.256L14.4116 20.344H15.8876L15.8156 18.256H14.4836ZM16.6556 13.132L18.1796 12.256C18.0116 11.952 17.7996 11.664 17.5436 11.392C17.2876 11.12 16.9636 10.9 16.5716 10.732C16.1876 10.564 15.7036 10.48 15.1196 10.48C14.5356 10.48 14.0196 10.584 13.5716 10.792C13.1316 11 12.7836 11.276 12.5276 11.62C12.2796 11.964 12.1556 12.34 12.1556 12.748C12.1556 13.156 12.2316 13.508 12.3836 13.804C12.5436 14.092 12.7396 14.34 12.9716 14.548C13.2116 14.756 13.4596 14.928 13.7156 15.064C13.9796 15.192 14.2156 15.292 14.4236 15.364C14.7516 15.492 15.0436 15.612 15.2996 15.724C15.5636 15.836 15.7716 15.968 15.9236 16.12C16.0836 16.264 16.1636 16.448 16.1636 16.672C16.1636 16.848 16.1236 17 16.0436 17.128C15.9716 17.248 15.8596 17.34 15.7076 17.404C15.5636 17.468 15.3716 17.5 15.1316 17.5C14.8436 17.5 14.5796 17.444 14.3396 17.332C14.1076 17.22 13.8916 17.052 13.6916 16.828C13.4916 16.604 13.2916 16.324 13.0916 15.988L11.6636 16.996C11.8396 17.38 12.0996 17.732 12.4436 18.052C12.7876 18.372 13.1836 18.632 13.6316 18.832C14.0876 19.024 14.5676 19.12 15.0716 19.12C15.7356 19.12 16.3076 19.024 16.7876 18.832C17.2676 18.64 17.6396 18.36 17.9036 17.992C18.1676 17.616 18.2996 17.168 18.2996 16.648C18.2996 16.28 18.2396 15.96 18.1196 15.688C18.0076 15.408 17.8516 15.164 17.6516 14.956C17.4516 14.748 17.2236 14.572 16.9676 14.428C16.7116 14.276 16.4396 14.148 16.1516 14.044C15.8156 13.916 15.4996 13.8 15.2036 13.696C14.9156 13.584 14.6796 13.456 14.4956 13.312C14.3196 13.168 14.2316 12.976 14.2316 12.736C14.2316 12.592 14.2636 12.464 14.3276 12.352C14.3996 12.24 14.5036 12.152 14.6396 12.088C14.7836 12.016 14.9636 11.98 15.1796 11.98C15.3956 11.98 15.5916 12.028 15.7676 12.124C15.9436 12.212 16.1036 12.344 16.2476 12.52C16.3996 12.696 16.5356 12.9 16.6556 13.132Z" fill="black"/>
</svg>
