<svg width="32" height="32" viewBox="0 0 32 32" fill="none" xmlns="http://www.w3.org/2000/svg">
<path fill-rule="evenodd" clip-rule="evenodd" d="M16 32C24.8366 32 32 24.8366 32 16C32 7.16344 24.8366 0 16 0C7.16344 0 0 7.16344 0 16C0 24.8366 7.16344 32 16 32ZM7.41421 8.82843L8.82843 7.41421C9.60947 6.63317 10.8758 6.63317 11.6569 7.41421L16.144 11.9014L20.6312 7.41421C21.4123 6.63317 22.6786 6.63317 23.4596 7.41421L24.8738 8.82843C25.6549 9.60947 25.6549 10.8758 24.8738 11.6569L20.3867 16.144L24.8738 20.6312C25.6549 21.4123 25.6549 22.6786 24.8738 23.4596L23.4596 24.8738C22.6786 25.6549 21.4123 25.6549 20.6312 24.8738L16.144 20.3867L11.6569 24.8738C10.8758 25.6549 9.60947 25.6549 8.82843 24.8738L7.41421 23.4596C6.63316 22.6786 6.63316 21.4123 7.41421 20.6312L11.9014 16.144L7.41421 11.6569C6.63316 10.8758 6.63316 9.60947 7.41421 8.82843Z" fill="black"/>
<path d="M7.41421 8.82843L8.82843 7.41421C9.60947 6.63317 10.8758 6.63317 11.6569 7.41421L16.144 11.9014L20.6312 7.41421C21.4123 6.63317 22.6786 6.63317 23.4596 7.41421L24.8738 8.82843C25.6549 9.60947 25.6549 10.8758 24.8738 11.6569L20.3867 16.144L24.8738 20.6312C25.6549 21.4123 25.6549 22.6786 24.8738 23.4596L23.4596 24.8738C22.6786 25.6549 21.4123 25.6549 20.6312 24.8738L16.144 20.3867L11.6569 24.8738C10.8758 25.6549 9.60947 25.6549 8.82843 24.8738L7.41421 23.4596C6.63316 22.6786 6.63316 21.4123 7.41421 20.6312L11.9014 16.144L7.41421 11.6569C6.63316 10.8758 6.63316 9.60947 7.41421 8.82843Z" fill="white"/>
</svg>
