<svg width="180" height="180" viewBox="0 0 180 180" fill="none" xmlns="http://www.w3.org/2000/svg">
<path fill-rule="evenodd" clip-rule="evenodd" d="M180 90C180 139.706 139.706 180 90 180C40.2944 180 0 139.706 0 90C0 40.2944 40.2944 0 90 0C139.706 0 180 40.2944 180 90ZM18 125V114C18 111.891 23.0643 109.769 27.3199 107.986C30.1276 106.809 32.5833 105.78 33 105C34.0483 103.037 27.0533 95.541 27 95.5C26.4116 92.5873 26.4206 91.2108 27.75 89.75L28.5 84C30.0341 78.4406 32.5139 77.4057 38 77H39C44.4861 77.4057 46.9659 78.4406 48.5 84L49.25 89.75C50.5794 91.2108 50.5884 92.5873 50 95.5C49.9467 95.541 42.9517 103.037 44 105C44.4167 105.78 46.8724 106.809 49.6801 107.986C53.9357 109.769 59 111.891 59 114V125H41L39 112.5L41 110L40 108H37L36 110L38 112.5L36 125H18ZM64 149.5H86.5L89 131L87.2683 127.659L88.561 125.073H92L93 128L91.1463 130.89L93.7317 149.5H117V132.829C117 130.103 110.453 127.36 104.952 125.055C101.323 123.534 98.1484 122.204 97.6098 121.195C96.2547 118.658 105.297 108.968 105.366 108.915C106.126 105.149 106.115 103.37 104.396 101.482L103.427 94.0488C101.444 86.8623 98.2381 85.5244 91.1463 85H89.8537C82.7619 85.5244 79.5563 86.8623 77.5732 94.0488L76.6037 101.482C74.8851 103.37 74.8735 105.149 75.6341 108.915C75.703 108.968 84.7453 118.658 83.3902 121.195C82.8516 122.204 79.6772 123.534 76.0476 125.055C70.5466 127.36 64 130.103 64 132.829V149.5ZM125.5 88C127.327 77.2801 133.3 75.5906 139.5 75.5H140C146.2 75.5906 152.173 77.2801 154 88V105C153.546 104.904 143.927 105.03 144.5 106C144.503 106.602 145.919 107.034 147.791 107.605C150.895 108.552 155.253 109.881 156.5 113C158.221 117.302 158.368 121.456 158.455 123.933C158.47 124.335 158.482 124.693 158.5 125H139.5H121C121.018 124.693 121.03 124.335 121.045 123.933C121.132 121.456 121.279 117.302 123 113C124.247 109.881 128.605 108.552 131.709 107.605C133.581 107.034 134.997 106.602 135 106C135.573 105.03 125.954 104.904 125.5 105V88ZM109.707 57.9519C109.327 60.1715 108.592 62.2694 107.56 64.1844L110.875 69.3317C111.131 69.7276 111.076 70.2486 110.742 70.582L106.897 74.4268C106.582 74.7425 106.095 74.8107 105.705 74.5938L101 71.5C100.986 71.4924 100.973 71.4845 100.96 71.4764C99.1828 72.6765 97.2077 73.6053 95.0937 74.2036L93.7072 80.2747C93.5846 80.704 93.1922 81 92.7457 81H87.3084C86.8369 81 86.4294 80.6706 86.3306 80.2095L85.2914 74.5436C83.3551 74.1396 81.519 73.4624 79.8254 72.5541L75.0427 75.8745C74.6468 76.1307 74.1258 76.0755 73.7923 75.7421L69.9476 71.8973C69.6319 71.5816 69.5637 71.0949 69.7805 70.7046L72.3912 65.7735C71.2305 64.0192 70.3324 62.0761 69.7529 60L63.7905 59.1694C63.3294 59.0706 63 58.6631 63 58.1916V52.7543C63 52.3078 63.296 51.9154 63.7253 51.7928L69.4894 50.0033C69.9406 47.9755 70.6922 46.0608 71.6951 44.3085L67.4998 39.0427C67.2437 38.6468 67.2989 38.1258 67.6323 37.7923L71.477 33.9476C71.7927 33.6319 72.2795 33.5637 72.6698 33.7805L78.4039 37.2357C80.0372 36.1823 81.8299 35.3547 83.7377 34.797L84.8306 28.7905C84.9294 28.3294 85.3369 28 85.8084 28H91.2457C91.6922 28 92.0846 28.296 92.2072 28.7253L93.6548 34.3973C95.3164 34.7393 96.9045 35.2824 98.3927 36L103.6 32.7461C103.996 32.49 104.517 32.5452 104.851 32.8786L108.696 36.7233C109.011 37.0391 109.079 37.5258 108.863 37.9161L106.219 42.6107C107.298 44.1279 108.175 45.7982 108.812 47.5826L115.275 49.2928C115.704 49.4154 116 49.8078 116 50.2543V55.6916C116 56.1631 115.671 56.5706 115.21 56.6694L109.707 57.9519ZM101.244 54.5079C101.244 60.8592 96.0957 66.0079 89.7445 66.0079C83.3932 66.0079 78.2445 60.8592 78.2445 54.5079C78.2445 48.1566 83.3932 43.0079 89.7445 43.0079C96.0957 43.0079 101.244 48.1566 101.244 54.5079ZM142 70H140V74H142V70ZM140 64H142V68H140V64ZM142 58H140V62H142V58ZM140 52H142V56H140V52ZM142 46H139V48H140V50H142V46ZM136 46V48H132V46H136ZM129 48V46H125V48H129ZM122 46V48H118V46H122ZM115 48V46H111V48H115ZM64 46V48H68V46H64ZM57 48V46H61V48H57ZM50 46V48H54V46H50ZM43 48V46H47V48H43ZM40 46H37V50H39V48H40V46ZM37 52H39V56H37V52ZM39 58H37V62H39V58ZM37 64H39V68H37V64ZM39 70H37V74H39V70Z" fill="#272424"/>
</svg>
