<svg width="31" height="29" viewBox="0 0 31 29" fill="none" xmlns="http://www.w3.org/2000/svg">
<path d="M5.10039 9H5.88474H28.9756H29.4782H29.5214V9.85714H29.4735H28.7264H5.68539H5.10039V9Z" fill="black"/>
<path fill-rule="evenodd" clip-rule="evenodd" d="M19.0582 3.8H10.6969V3H19.0582V3.8Z" fill="black"/>
<path fill-rule="evenodd" clip-rule="evenodd" d="M29.0127 8.87239H28.7074H5.91442L5.88474 9L5.68539 9.85714L5.10039 12.3724L4.59162 14.3724L3.57407 17.3724L2.02631 20.3724L0.5 22.8724L5.10039 22.9259L5.91442 22.9354L23.8694 23.1445L25.3957 20.6445L26.4688 17.3724L27.4864 14.3724L27.9951 12.3724L28.7074 9.92239L28.7264 9.85714L28.9756 9L29.0127 8.87239ZM28.1406 9.37239H11.1594H5.9295L5.43957 12.7428L5.4066 12.8724L4.94964 14.6687L3.96979 17.5576L2.5 20.4465L1.50777 22.0365H15.1088L24.0292 22.3086L25 20.7185L25.8564 17.8724V17.1751L26.8363 14.2862L27.4864 12.3724L28.1406 9.37239Z" fill="black"/>
<path d="M3.88735 17.1751H9.65549H17.9H26.2734L25.96 17.8724H25.8564H18.0741H3.57407L3.88735 17.1751Z" fill="black"/>
<path d="M5.12176 12.8724H5.4066H10.8951H27.7512L27.4864 13.5697H19.0582H11.2105H4.94279L5.12176 12.8724Z" fill="black"/>
<path d="M11.1594 8.87239H11.7144V12.1032L11.2105 13.5697L10.6044 15.3339L9.65549 17.1751L9.49433 17.4878L7.82926 20.7185L6.16418 22.8724H5.60916L7.27423 20.7185L8.93931 17.4878L10.0494 15.3339L10.8951 12.8724L11.1594 12.1032V9.37239V8.87239Z" fill="black"/>
<path d="M19.346 8.87239H19.8548V11.8724L19.346 14.8724L18.3285 17.3724L18.0741 17.8724L17.3109 19.3724L15.7846 21.3724L15.1088 22.0365L14.2583 22.8724H13.7495L15.2758 21.3724L16.8021 19.3724L17.8197 17.3724L17.9 17.1751L18.8372 14.8724L19.0582 13.5697L19.346 11.8724V8.87239Z" fill="black"/>
<path d="M11.1594 9.37239H5.9295L5.43957 12.7428L5.4066 12.8724H10.8951L11.1594 12.1032V9.37239Z" fill="black"/>
<path d="M9.65549 17.1751H17.9L18.8372 14.8724L19.0582 13.5697H11.2105L10.6044 15.3339L9.65549 17.1751Z" fill="black"/>
<path d="M15.1088 22.0365L24.0292 22.3086L25 20.7185L25.8564 17.8724H18.0741L17.3109 19.3724L15.7846 21.3724L15.1088 22.0365Z" fill="black"/>
<path d="M9 1.33624C10.1716 0.842244 10.8284 0.936047 12 1.33624V7.33624C10.9979 7.77831 9.75 7.83624 9 7.33624V3.8V3V1.33624Z" fill="black"/>
<path d="M19.0582 1C20.2297 0.483107 20.8866 0.581259 22.0582 1L22.0406 3L22.0336 3.8L22 7.63C20.9979 8.09256 19.75 8.15318 19 7.63L19.0582 1Z" fill="black"/>
<path fill-rule="evenodd" clip-rule="evenodd" d="M31 7L29.5214 5.0286L29.5 5L29.4782 9L29.4735 9.85714L29.38 27H5.88L13.3724 29H31V7Z" fill="black"/>
<path d="M5.10039 9H5.88474L5.91442 8.87239V3.8H9V3L5.10039 3V9Z" fill="black"/>
<path d="M5.68539 9.85714H5.10039V12.3724L5.68539 9.85714Z" fill="black"/>
<path d="M29.5214 5.0286V3H22.0406L22.0336 3.8H28.7074V8.87239H29.0127L28.9756 9H29.4782L29.5 5L29.5214 5.0286Z" fill="black"/>
<path d="M5.88 27H29.38L29.4735 9.85714H28.7264L28.7074 9.92239V26.2H5.91442V22.9354L5.10039 22.9259V27H5.88Z" fill="black"/>
</svg>
