<svg width="32" height="26" viewBox="0 0 32 26" fill="none" xmlns="http://www.w3.org/2000/svg">
<path d="M14.7143 6.25846C14.8982 6.09211 15.1373 6 15.3852 6H16.6148C16.8627 6 17.1018 6.09211 17.2857 6.25846L27.1709 15.2023C27.3805 15.3918 27.5 15.6612 27.5 15.9438V25C27.5 25.5523 27.0523 26 26.5 26H20C19.4477 26 19 25.5523 19 25V19C19 18.4477 18.5523 18 18 18H14C13.4477 18 13 18.4477 13 19V25C13 25.5523 12.5523 26 12 26H5.5C4.94772 26 4.5 25.5523 4.5 25V15.9438C4.5 15.6612 4.61955 15.3918 4.82909 15.2023L14.7143 6.25846Z" fill="black"/>
<path d="M14.7102 0.322313C14.8962 0.144818 15.1434 0.0457888 15.4006 0.0457888H16.5994C16.8566 0.0457888 17.1038 0.144818 17.2898 0.322312L18 1L31.2151 12.756C31.6422 13.1359 31.6644 13.7959 31.2639 14.2038L30.162 15.3259C29.7905 15.7042 29.1882 15.7268 28.7894 15.3773L17.2829 5.29371C17.1005 5.1339 16.8663 5.04579 16.6238 5.04579H15.3762C15.1337 5.04579 14.8995 5.1339 14.7171 5.29371L3.21057 15.3773C2.81178 15.7268 2.20954 15.7042 1.83801 15.3259L0.736077 14.2038C0.335556 13.7959 0.35782 13.1359 0.784917 12.756L14 1L14.7102 0.322313Z" fill="black"/>
<path d="M22 1C22 0.447715 22.4477 0 23 0H26C26.5523 0 27 0.447715 27 1V9.23381C27 10.0111 26.152 10.4912 25.4855 10.0913L22.4855 8.2913C22.1843 8.11058 22 7.78507 22 7.43381V1Z" fill="black"/>
</svg>
