<svg width="32" height="33" viewBox="0 0 32 33" fill="none" xmlns="http://www.w3.org/2000/svg">
<path d="M26 13.05H32V32.05H26V13.05Z" fill="black"/>
<path d="M20 18.05H25V32.05H20V18.05Z" fill="black"/>
<path d="M13 15.05H19V32.05H13V15.05Z" fill="black"/>
<path d="M7 19.05H12V32.05H7V19.05Z" fill="black"/>
<path d="M0 21.05H6V32.05H0V21.05Z" fill="black"/>
<path d="M3 14.55L7 12.05L10.5 9.55001L14 6.05001H18L21 6.55001L23 6.05001L27 2.55001L31 1.55001V3.55001L27.5 4.55001L23.5 8.05001L21 8.55001L18 8.05001H14.5L12 10.55L8 13.55L4 16.05L3 14.55Z" fill="black"/>
<path d="M31.5 2.5C31.5 3.88071 30.3807 5 29 5C27.6193 5 26.5 3.88071 26.5 2.5C26.5 1.11929 27.6193 0 29 0C30.3807 0 31.5 1.11929 31.5 2.5Z" fill="black"/>
<path d="M25 7.55001C25 8.93072 23.8807 10.05 22.5 10.05C21.1193 10.05 20 8.93072 20 7.55001C20 6.1693 21.1193 5.05001 22.5 5.05001C23.8807 5.05001 25 6.1693 25 7.55001Z" fill="black"/>
<path d="M18.6889 6.53084C18.6889 7.91155 17.5696 9.03084 16.1889 9.03084C14.8082 9.03084 13.6889 7.91155 13.6889 6.53084C13.6889 5.15013 14.8082 4.03084 16.1889 4.03084C17.5696 4.03084 18.6889 5.15013 18.6889 6.53084Z" fill="black"/>
<path d="M6 15.55C6 16.9307 4.88071 18.05 3.5 18.05C2.11929 18.05 1 16.9307 1 15.55C1 14.1693 2.11929 13.05 3.5 13.05C4.88071 13.05 6 14.1693 6 15.55Z" fill="black"/>
<path d="M12 11.55C12 12.9307 10.8807 14.05 9.5 14.05C8.11929 14.05 7 12.9307 7 11.55C7 10.1693 8.11929 9.05001 9.5 9.05001C10.8807 9.05001 12 10.1693 12 11.55Z" fill="black"/>
</svg>
