<svg width="32" height="32" viewBox="0 0 32 32" fill="none" xmlns="http://www.w3.org/2000/svg">
<path fill-rule="evenodd" clip-rule="evenodd" d="M32 5.15985C32 4.69387 31.6782 4.28966 31.224 4.18526L13.5814 0.129741C13.2322 0.0494903 12.8669 0.162109 12.6235 0.424977L0.266184 13.7731C0.0950614 13.9579 0 14.2005 0 14.4524V25.9032C0 26.354 0.30163 26.7491 0.736504 26.8678L18.962 31.8461C19.3101 31.9412 19.6824 31.8413 19.9363 31.5848L31.7108 19.6862C31.8961 19.499 32 19.2462 32 18.9828V14.4988C32 14.2322 31.8433 13.9906 31.6 13.8818V13.8818C31.2339 13.7182 31.09 13.2736 31.2908 12.9265L31.8656 11.9325C31.9537 11.7804 32 11.6077 32 11.4319V8.84868C32 8.54913 31.7572 8.3063 31.4576 8.3063V8.3063C31.1581 8.3063 30.9153 8.06347 30.9153 7.76393V7.63633C30.9153 7.44562 30.9965 7.26395 31.1387 7.13685L31.6665 6.66507C31.8787 6.47536 32 6.20419 32 5.91953V5.15985ZM2.71186 18.2126C2.71186 18.662 3.01156 19.0561 3.44453 19.1762L17.8578 23.1749C18.2162 23.2743 18.6001 23.1667 18.8545 22.8954L29.0853 11.9888C29.2592 11.8034 29.3559 11.5588 29.3559 11.3046V10.6849C29.3559 9.79906 28.2893 9.35062 27.6563 9.97033L18.3816 19.051C18.1247 19.3025 17.7526 19.3968 17.407 19.2979L3.98689 15.4589C3.34801 15.2762 2.71186 15.7558 2.71186 16.4204V18.2126ZM18.854 28.727C18.5993 28.9906 18.2207 29.0938 17.8675 28.9958L3.44453 24.9944C3.01156 24.8743 2.71186 24.4801 2.71186 24.0308V22.2538C2.71186 21.5847 3.35621 21.1044 3.99744 21.2954L18.3981 25.5865C18.7573 25.6936 19.1461 25.5908 19.4055 25.3203L27.024 17.3748C27.6476 16.7244 28.7458 17.1805 28.7458 18.0816V18.0816C28.7458 18.3408 28.6451 18.5923 28.465 18.7788L18.854 28.727ZM22.4253 7.97495C22.9314 7.40944 22.6479 6.50843 21.9092 6.33465L13.8212 4.43199C13.4649 4.34816 13.0912 4.46575 12.8471 4.73855L12.5127 5.11219C12.0066 5.6777 12.2902 6.57871 13.0289 6.75249L21.1168 8.65515C21.4732 8.73898 21.8468 8.62139 22.091 8.34859L22.4253 7.97495Z" fill="black"/>
</svg>
