<svg width="33" height="33" viewBox="0 0 33 33" fill="none" xmlns="http://www.w3.org/2000/svg">
<path fill-rule="evenodd" clip-rule="evenodd" d="M32.5 25C32.5 29.1421 29.1421 32.5 25 32.5C20.8579 32.5 17.5 29.1421 17.5 25C17.5 20.8579 20.8579 17.5 25 17.5C29.1421 17.5 32.5 20.8579 32.5 25ZM23.5 21V23.5H21V26.5H23.5V29H26.5V26.5H29V23.5H26.5V21H23.5Z" fill="black"/>
<path d="M27 0H3C1.34315 0 0 1.34315 0 3V26C0 27.6569 1.33739 29 2.99424 29H16.5C15.5 29 15.5 26 15 26H5C3.34315 26 3 24.6569 3 23V5C3 3.34315 3.34315 3 5 3H25C26.6569 3 27 3.34315 27 5V14.5C27 15.1151 30 16.5 30 17.5V2.99621C30 1.33935 28.6569 0 27 0Z" fill="black"/>
<path d="M11 19C11 18.4477 11.4445 18 11.9968 18C14.2962 18 19.6873 18 18.5 18C17 18 15 22 15.5 22C15.8555 22 13.4302 22 11.999 22C11.4467 22 11 21.5523 11 21V19Z" fill="black"/>
<path d="M11 13C11 12.4477 11.4477 12 12 12H24C24.5523 12 25 12.4477 25 13V15C25 15.5523 24.5523 16 24 16H12C11.4477 16 11 15.5523 11 15V13Z" fill="black"/>
<path d="M11 7C11 6.44772 11.4477 6 12 6H24C24.5523 6 25 6.44772 25 7V9C25 9.55228 24.5523 10 24 10H12C11.4477 10 11 9.55228 11 9V7Z" fill="black"/>
<path d="M5 7C5 6.44772 5.44772 6 6 6H8C8.55228 6 9 6.44772 9 7V9C9 9.55228 8.55228 10 8 10H6C5.44772 10 5 9.55228 5 9V7Z" fill="black"/>
<path d="M5 19C5 18.4477 5.44772 18 6 18H8C8.55228 18 9 18.4477 9 19V21C9 21.5523 8.55228 22 8 22H6C5.44772 22 5 21.5523 5 21V19Z" fill="black"/>
<path d="M5 13C5 12.4477 5.44772 12 6 12H8C8.55228 12 9 12.4477 9 13V15C9 15.5523 8.55228 16 8 16H6C5.44772 16 5 15.5523 5 15V13Z" fill="black"/>
</svg>
