<svg width="32" height="24" viewBox="0 0 32 24" fill="none" xmlns="http://www.w3.org/2000/svg">
<path fill-rule="evenodd" clip-rule="evenodd" d="M27 6H21V21H22V20V14V9V7H26.5L27.9421 9H24H23V10V13V14H24H31V17H29V19H31V20H29V21H32V13.2012L27 6ZM28.6631 10H27.5H24V13H29.5H30.8262L28.6631 10Z" fill="black"/>
<path d="M21 21V3H9V0H2V2H1V0H0V21H4V20H1V19H4V17H1V4H20V5H2V6H20V17H11V19H20V20H11V21H21Z" fill="black"/>
<path fill-rule="evenodd" clip-rule="evenodd" d="M7.5 24C9.433 24 11 22.433 11 20.5C11 18.567 9.433 17 7.5 17C5.567 17 4 18.567 4 20.5C4 22.433 5.567 24 7.5 24ZM7.5 23C8.88071 23 10 21.8807 10 20.5C10 19.1193 8.88071 18 7.5 18C6.11929 18 5 19.1193 5 20.5C5 21.8807 6.11929 23 7.5 23ZM8 20.5C8 20.7761 7.77614 21 7.5 21C7.22386 21 7 20.7761 7 20.5C7 20.2239 7.22386 20 7.5 20C7.77614 20 8 20.2239 8 20.5Z" fill="black"/>
<path fill-rule="evenodd" clip-rule="evenodd" d="M25.5 24C27.433 24 29 22.433 29 20.5C29 18.567 27.433 17 25.5 17C23.567 17 22 18.567 22 20.5C22 22.433 23.567 24 25.5 24ZM25.5 23C26.8807 23 28 21.8807 28 20.5C28 19.1193 26.8807 18 25.5 18C24.1193 18 23 19.1193 23 20.5C23 21.8807 24.1193 23 25.5 23ZM26 20.5C26 20.7761 25.7761 21 25.5 21C25.2239 21 25 20.7761 25 20.5C25 20.2239 25.2239 20 25.5 20C25.7761 20 26 20.2239 26 20.5Z" fill="black"/>
</svg>
