<svg width="258" height="348" viewBox="0 0 258 348" fill="none" xmlns="http://www.w3.org/2000/svg">
<path fill-rule="evenodd" clip-rule="evenodd" d="M29 5H229C242.255 5 253 15.7452 253 29V318.5C253 331.755 242.255 342.5 229 342.5H29C15.7452 342.5 5 331.755 5 318.5V29C5 15.7452 15.7452 5 29 5ZM209.5 22H47.5C34.2452 22 23.5 32.7452 23.5 46V73.5C23.5 86.7548 34.2452 97.5 47.5 97.5H209.5C222.755 97.5 233.5 86.7548 233.5 73.5V46C233.5 32.7452 222.755 22 209.5 22ZM61 124.5C61 121.186 58.3137 118.5 55 118.5H29.5C26.1863 118.5 23.5 121.186 23.5 124.5V150C23.5 153.314 26.1863 156 29.5 156H55C58.3137 156 61 153.314 61 150V124.5ZM228.5 230.5H144C140.686 230.5 138 233.186 138 236.5V262C138 265.314 140.686 268 144 268H228.5C231.814 268 234.5 265.314 234.5 262V236.5C234.5 233.186 231.814 230.5 228.5 230.5ZM227.5 287H143C139.686 287 137 289.686 137 293V318.5C137 321.814 139.686 324.5 143 324.5H227.5C230.814 324.5 233.5 321.814 233.5 318.5V293C233.5 289.686 230.814 287 227.5 287ZM114 118.5H88.5C85.1863 118.5 82.5 121.186 82.5 124.5V150C82.5 153.314 85.1863 156 88.5 156H114C117.314 156 120 153.314 120 150V124.5C120 121.186 117.314 118.5 114 118.5ZM168.5 118.5H143C139.686 118.5 137 121.186 137 124.5V150C137 153.314 139.686 156 143 156H168.5C171.814 156 174.5 153.314 174.5 150V124.5C174.5 121.186 171.814 118.5 168.5 118.5ZM227.5 118.5H202C198.686 118.5 196 121.186 196 124.5V150C196 153.314 198.686 156 202 156H227.5C230.814 156 233.5 153.314 233.5 150V124.5C233.5 121.186 230.814 118.5 227.5 118.5ZM55 174.5H29.5C26.1863 174.5 23.5 177.186 23.5 180.5V206C23.5 209.314 26.1863 212 29.5 212H55C58.3137 212 61 209.314 61 206V180.5C61 177.186 58.3137 174.5 55 174.5ZM114 174.5H88.5C85.1863 174.5 82.5 177.186 82.5 180.5V206C82.5 209.314 85.1863 212 88.5 212H114C117.314 212 120 209.314 120 206V180.5C120 177.186 117.314 174.5 114 174.5ZM168.5 174.5H143C139.686 174.5 137 177.186 137 180.5V206C137 209.314 139.686 212 143 212H168.5C171.814 212 174.5 209.314 174.5 206V180.5C174.5 177.186 171.814 174.5 168.5 174.5ZM227.5 174.5H202C198.686 174.5 196 177.186 196 180.5V206C196 209.314 198.686 212 202 212H227.5C230.814 212 233.5 209.314 233.5 206V180.5C233.5 177.186 230.814 174.5 227.5 174.5ZM55 230.5H29.5C26.1863 230.5 23.5 233.186 23.5 236.5V262C23.5 265.314 26.1863 268 29.5 268H55C58.3137 268 61 265.314 61 262V236.5C61 233.186 58.3137 230.5 55 230.5ZM114 230.5H88.5C85.1863 230.5 82.5 233.186 82.5 236.5V262C82.5 265.314 85.1863 268 88.5 268H114C117.314 268 120 265.314 120 262V236.5C120 233.186 117.314 230.5 114 230.5ZM55 287H29.5C26.1863 287 23.5 289.686 23.5 293V318.5C23.5 321.814 26.1863 324.5 29.5 324.5H55C58.3137 324.5 61 321.814 61 318.5V293C61 289.686 58.3137 287 55 287ZM114 287H88.5C85.1863 287 82.5 289.686 82.5 293V318.5C82.5 321.814 85.1863 324.5 88.5 324.5H114C117.314 324.5 120 321.814 120 318.5V293C120 289.686 117.314 287 114 287Z" stroke="black" stroke-width="10"/>
</svg>
