<svg width="32" height="32" viewBox="0 0 32 32" fill="none" xmlns="http://www.w3.org/2000/svg">
<path fill-rule="evenodd" clip-rule="evenodd" d="M16 28C22.6274 28 28 22.6274 28 16C28 9.37258 22.6274 4 16 4C9.37258 4 4 9.37258 4 16C4 22.6274 9.37258 28 16 28ZM16 20C18.2091 20 20 18.2091 20 16C20 13.7909 18.2091 12 16 12C13.7909 12 12 13.7909 12 16C12 18.2091 13.7909 20 16 20Z" fill="black"/>
<path d="M13 1C13 0.447715 13.4477 0 14 0H18C18.5523 0 19 0.447715 19 1V5C19 5.55228 18.5523 6 18 6H14C13.4477 6 13 5.55228 13 5V1Z" fill="black"/>
<path d="M13 31C13 31.5523 13.4477 32 14 32H18C18.5523 32 19 31.5523 19 31V27C19 26.4477 18.5523 26 18 26H14C13.4477 26 13 26.4477 13 27V31Z" fill="black"/>
<path d="M0 18C0 18.5523 0.447715 19 1 19H5C5.55228 19 6 18.5523 6 18V14C6 13.4477 5.55228 13 5 13H1C0.447715 13 0 13.4477 0 14V18Z" fill="black"/>
<path d="M26 18C26 18.5523 26.4477 19 27 19H31C31.5523 19 32 18.5523 32 18V14C32 13.4477 31.5523 13 31 13H27C26.4477 13 26 13.4477 26 14V18Z" fill="black"/>
<path d="M25.5355 29.7782C25.9261 30.1687 26.5592 30.1687 26.9497 29.7782L29.7782 26.9497C30.1687 26.5592 30.1687 25.9261 29.7782 25.5355L26.0977 21.855C25.7071 21.4645 25.074 21.4645 24.6834 21.855L21.855 24.6834C21.4645 25.074 21.4645 25.7071 21.855 26.0977L25.5355 29.7782Z" fill="black"/>
<path d="M6.67797 10.9206C7.0685 11.3111 7.70166 11.3111 8.09219 10.9206L10.9206 8.09219C11.3111 7.70166 11.3111 7.0685 10.9206 6.67797L6.94975 2.70711C6.55922 2.31658 5.92606 2.31658 5.53553 2.70711L2.70711 5.53553C2.31658 5.92606 2.31658 6.55922 2.70711 6.94975L6.67797 10.9206Z" fill="black"/>
<path d="M24.5943 10.7194C24.9848 11.11 25.618 11.11 26.0085 10.7194L29.7782 6.94975C30.1687 6.55922 30.1687 5.92606 29.7782 5.53553L26.9497 2.70711C26.5592 2.31658 25.9261 2.31658 25.5355 2.70711L21.7658 6.47681C21.3753 6.86733 21.3753 7.5005 21.7658 7.89102L24.5943 10.7194Z" fill="black"/>
<path d="M5.53553 29.6961C5.92606 30.0866 6.55922 30.0866 6.94975 29.6961L10.6961 25.9497C11.0866 25.5592 11.0866 24.9261 10.6961 24.5355L7.86766 21.7071C7.47714 21.3166 6.84397 21.3166 6.45345 21.7071L2.70711 25.4534C2.31658 25.844 2.31658 26.4771 2.70711 26.8677L5.53553 29.6961Z" fill="black"/>
</svg>
