<svg width="36" height="32" viewBox="0 0 36 32" fill="none" xmlns="http://www.w3.org/2000/svg">
<path fill-rule="evenodd" clip-rule="evenodd" d="M7 18H6V32H36V19H28V15H27L24 18H23V15H22L19 18H18V15H17L13 18H12V15H11L7 18ZM10 28V25H11V28H10ZM35 31V20H27V16.5L24 19.5H22V16.5L19 19.5H17V16.5L13 19.5H11V16.5L7.5 19H7V31H23V23.5H28V31H35ZM9 29V24H12V29H9ZM13.5 29V24H16.5V29H13.5ZM18 29V24H21V29H18ZM14.5 28V25H15.5V28H14.5ZM19 25V28H20V25H19ZM24 31V24.5H27V31H24Z" fill="black"/>
<path fill-rule="evenodd" clip-rule="evenodd" d="M0 8H28V10H26.5V15.5L26 16L25.5 16.5V10H2.5V31H6V32H1.5V10H0V8Z" fill="black"/>
<path d="M5 19H6V21H5V19Z" fill="black"/>
<path d="M5 13H10V15H5V13Z" fill="black"/>
<path d="M5 25H6V27H5V25Z" fill="black"/>
<path d="M12 13H17V15H12V13Z" fill="black"/>
<path d="M19 13H24V15H19V13Z" fill="black"/>
<path fill-rule="evenodd" clip-rule="evenodd" d="M34.5 3H30.5L29.5 19H30.5L31.5 4H33.5L34.5 19H35.5L34.5 3Z" fill="black"/>
<path d="M23 0H25.5V1H27V0H29.5H31.5V1H33V2.5H32V2H30.5V1H29.5H28V2H27H24V1H23V0Z" fill="black"/>
</svg>
