<svg width="308" height="300" viewBox="0 0 308 300" fill="none" xmlns="http://www.w3.org/2000/svg">
<path fill-rule="evenodd" clip-rule="evenodd" d="M36.5 9.5C36.5 4.52944 40.5294 0.5 45.5 0.5H277.5C282.471 0.5 286.5 4.52944 286.5 9.5V291C286.5 295.971 282.471 300 277.5 300H45.5C40.5294 300 36.5 295.971 36.5 291V9.5ZM135.5 27C135.5 22.0294 131.471 18 126.5 18H89.75H60.5C55.5294 18 51.5 22.0294 51.5 27V273C51.5 277.971 55.5294 282 60.5 282H89.75H126.5C131.471 282 135.5 277.971 135.5 273V27Z" fill="black"/>
<path d="M149 41C149 33.8203 154.82 28 162 28H295C302.18 28 308 33.8203 308 41V101C308 108.18 302.18 114 295 114H162C154.82 114 149 108.18 149 101V41Z" fill="black"/>
<path d="M149 170C149 162.82 154.82 157 162 157H295C302.18 157 308 162.82 308 170V230C308 237.18 302.18 243 295 243H162C154.82 243 149 237.18 149 230V170Z" fill="black"/>
<path d="M0.5 62C0.5 55.3726 5.87258 50 12.5 50H83.5C90.1274 50 95.5 55.3726 95.5 62C95.5 68.6274 90.1274 74 83.5 74H12.5C5.87258 74 0.5 68.6274 0.5 62Z" fill="black"/>
<path d="M0.5 119C0.5 112.373 5.87258 107 12.5 107H83.5C90.1274 107 95.5 112.373 95.5 119C95.5 125.627 90.1274 131 83.5 131H12.5C5.87258 131 0.5 125.627 0.5 119Z" fill="black"/>
<path d="M0.5 233C0.5 226.373 5.87258 221 12.5 221H83.5C90.1274 221 95.5 226.373 95.5 233C95.5 239.627 90.1274 245 83.5 245H12.5C5.87258 245 0.5 239.627 0.5 233Z" fill="black"/>
<path d="M0.5 176C0.5 169.373 5.87258 164 12.5 164H83.5C90.1274 164 95.5 169.373 95.5 176C95.5 182.627 90.1274 188 83.5 188H12.5C5.87258 188 0.5 182.627 0.5 176Z" fill="black"/>
</svg>
