<svg width="180" height="180" viewBox="0 0 180 180" fill="none" xmlns="http://www.w3.org/2000/svg">
<path fill-rule="evenodd" clip-rule="evenodd" d="M90 0C40.2944 0 0 40.2944 0 90C0 114.529 9.81286 136.766 25.7271 153L53.6262 125H41L39 112.5L41 110L40 108H37L36 110L38 112.5L36 125H18V114C18 111.891 23.0643 109.769 27.3199 107.986C30.1276 106.809 32.5833 105.78 33 105C34.0483 103.037 27.0533 95.541 27 95.5C26.4116 92.5873 26.4206 91.2108 27.75 89.75L28.5 84C30.0341 78.4406 32.5139 77.4057 38 77H39C44.4861 77.4057 46.9659 78.4406 48.5 84L49.25 89.75C50.5794 91.2108 50.5884 92.5873 50 95.5C49.9467 95.541 42.9517 103.037 44 105C44.4167 105.78 46.8724 106.809 49.6801 107.986C53.9357 109.769 59 111.891 59 114V119.607L75.6061 102.941C75.8378 102.438 76.1652 101.963 76.6037 101.482L77.5732 94.0488C79.5563 86.8623 82.7619 85.5244 89.8537 85H91.1463C91.901 85.0558 92.6117 85.1208 93.2816 85.2011L104.585 73.8573L101 71.5C100.986 71.4924 100.973 71.4845 100.96 71.4764C99.1828 72.6765 97.2077 73.6053 95.0937 74.2036L93.7072 80.2747C93.5846 80.704 93.1922 81 92.7457 81H87.3084C86.8369 81 86.4294 80.6706 86.3306 80.2095L85.2914 74.5436C83.3551 74.1396 81.519 73.4624 79.8254 72.5541L75.0427 75.8745C74.6468 76.1307 74.1258 76.0755 73.7923 75.7421L69.9476 71.8973C69.6319 71.5816 69.5637 71.0949 69.7805 70.7046L72.3912 65.7735C71.2305 64.0192 70.3324 62.0761 69.7529 60L63.7905 59.1694C63.3294 59.0706 63 58.6631 63 58.1916V52.7543C63 52.3078 63.296 51.9154 63.7253 51.7928L69.4894 50.0033C69.9406 47.9755 70.6922 46.0608 71.6951 44.3085L67.4998 39.0427C67.2437 38.6468 67.2989 38.1258 67.6323 37.7923L71.477 33.9476C71.7927 33.6319 72.2795 33.5637 72.6698 33.7805L78.4039 37.2357C80.0372 36.1823 81.8299 35.3547 83.7377 34.797L84.8306 28.7905C84.9294 28.3294 85.3369 28 85.8084 28H91.2457C91.6922 28 92.0846 28.296 92.2072 28.7253L93.6548 34.3973C95.3164 34.7393 96.9045 35.2824 98.3927 36L103.6 32.7461C103.996 32.49 104.517 32.5452 104.851 32.8786L108.696 36.7233C109.011 37.0391 109.079 37.5258 108.863 37.9161L106.219 42.6107C107.298 44.1279 108.175 45.7982 108.812 47.5826L115.275 49.2928C115.704 49.4154 116 49.8078 116 50.2543V55.6916C116 56.1631 115.671 56.5706 115.21 56.6694L109.707 57.9519C109.327 60.1715 108.592 62.2694 107.56 64.1844L110.175 68.2461L132 46.3426V46H132.341L152.768 25.5C136.554 9.71956 114.412 0 90 0ZM40 46H37V50H39V48H40V46ZM64 46V48H68V46H64ZM57 46V48H61V46H57ZM50 46V48H54V46H50ZM43 46V48H47V46H43ZM39 52H37V56H39V52ZM39 58H37V62H39V58ZM39 64H37V68H39V64ZM39 70H37V74H39V70ZM115 46V48H111V46H115ZM122 46V48H118V46H122ZM129 46V48H125V46H129Z" fill="#272424"/>
<path fill-rule="evenodd" clip-rule="evenodd" d="M101.244 54.5079C101.244 60.8592 96.0957 66.0079 89.7445 66.0079C83.3932 66.0079 78.2445 60.8592 78.2445 54.5079C78.2445 48.1566 83.3932 43.0079 89.7445 43.0079C96.0957 43.0079 101.244 48.1566 101.244 54.5079Z" fill="#272424"/>
<path fill-rule="evenodd" clip-rule="evenodd" d="M90 180C139.706 180 180 139.706 180 90C180 64.7066 169.566 41.8501 152.768 25.5L132.341 46H136V48H132V46.3426L110.175 68.2461L110.875 69.3317C111.131 69.7276 111.076 70.2486 110.742 70.582L106.897 74.4268C106.582 74.7425 106.095 74.8107 105.705 74.5938L104.585 73.8573L93.2816 85.2011C98.9065 85.8754 101.655 87.6271 103.427 94.0488L104.396 101.482C106.115 103.37 106.126 105.149 105.366 108.915C105.297 108.968 96.2547 118.658 97.6098 121.195C98.1148 122.141 100.936 123.369 104.278 124.772C104.491 124.861 104.706 124.952 104.923 125.043L104.952 125.055C110.453 127.36 117 130.103 117 132.829L117.5 149.5H93.7317L91.1463 130.89L93 128L92 125.073H88.561L87.2683 127.659L89 131L86.5 149.5H63.5L64 132.829C64 130.103 70.5466 127.36 76.0476 125.055C79.6772 123.534 82.8516 122.204 83.3902 121.195C84.7453 118.658 75.703 108.968 75.6341 108.915C75.0676 106.11 74.9295 104.407 75.6061 102.941L59 119.607V125H53.6262L25.7271 153C42.0614 169.662 64.8235 180 90 180ZM139.5 75.5C133.3 75.5906 127.327 77.2801 125.5 88V105C125.954 104.904 135.573 105.03 135 106C134.997 106.602 133.581 107.034 131.709 107.605C128.605 108.552 124.247 109.881 123 113C121.279 117.302 121.132 121.456 121.045 123.933C121.03 124.335 121.018 124.693 121 125H139.5H158.5C158.482 124.693 158.47 124.335 158.455 123.933C158.368 121.456 158.221 117.302 156.5 113C155.253 109.881 150.895 108.552 147.791 107.605C145.919 107.034 144.503 106.602 144.5 106C143.927 105.03 153.546 104.904 154 105V88C152.173 77.2801 146.2 75.5906 140 75.5H139.5ZM139 46H142V50H140V48H139V46ZM140 52H142V56H140V52ZM140 58H142V62H140V58ZM140 64H142V68H140V64ZM140 70H142V74H140V70Z" fill="#272424"/>
</svg>
