<svg width="79" height="91" viewBox="0 0 79 91" fill="none" xmlns="http://www.w3.org/2000/svg">
<path d="M22.5714 33.8571H28.2143V76.1786H22.5714V33.8571Z" fill="black"/>
<path d="M50.7857 33.8571H56.4286V76.1786H50.7857V33.8571Z" fill="black"/>
<path d="M36.6786 33.8571H42.3214V76.1786H36.6786V33.8571Z" fill="black"/>
<path fill-rule="evenodd" clip-rule="evenodd" d="M39.5919 22.5714H22.6633H19.75H8.46429V28.2143V84.6429C8.46429 87.7593 10.9907 90.2857 14.1071 90.2857H64.8929C68.0093 90.2857 70.5357 87.7593 70.5357 84.6429V28.2143V22.5714H59.25H56.5205H39.5919ZM63.4821 79V28.2143L15.5179 28.2143V79C15.5179 82.1165 16.6335 83.2321 19.75 83.2321H59.25C62.3665 83.2321 63.4821 82.1165 63.4821 79Z" fill="black"/>
<path d="M48.5 8.36403C48.4313 8.31826 48.3208 8.24214 48.1791 8.14449C47.2882 7.53076 45.1376 6.04915 44 5.64286C42.6809 5.17177 41.4445 4.95474 39.5919 4.95474C37.7393 4.95474 36.4049 5.13065 34.9942 5.64286C33.5835 6.15506 31.707 7.05357 30.3966 8.36403L30.3557 8.40457C29.9566 8.79887 28.0023 10.7297 27.9407 12.6964L27.9141 14.1071H50.9788V12.6964C50.7857 11.2857 49 8.69736 48.5 8.36403Z" fill="white"/>
<path fill-rule="evenodd" clip-rule="evenodd" d="M56.5416 14.1071H73.3571V19.75H79V28.2143H70.5357V22.5714H59.25H56.5205C56.5205 21.6884 56.5423 20.7624 56.5647 19.8133C56.6087 17.9499 56.6547 15.9975 56.5416 14.1071ZM50.9788 14.1071H56.5416C56.3462 10.8415 55.6758 7.76084 53.699 5.64286C49.9952 1.67445 44.8299 4.23707e-07 39.5919 0C34.3539 -4.23707e-07 29.1886 1.67445 25.4848 5.64286C23.508 7.76084 22.8376 10.8415 22.6422 14.1071H5.64286V19.75H0V28.2143H8.46429V22.5714H19.75H22.6633C22.6633 21.6884 22.6415 20.7624 22.6191 19.8133C22.5751 17.9499 22.5291 15.9975 22.6422 14.1071H27.9141L27.9407 12.6964C28.0023 10.7297 29.9566 8.79887 30.3557 8.40457L30.3966 8.36403C31.707 7.05357 33.5835 6.15506 34.9942 5.64286C36.4049 5.13065 37.7393 4.95474 39.5919 4.95474C41.4445 4.95474 42.6809 5.17177 44 5.64286C45.1376 6.04915 47.2882 7.53076 48.1791 8.14449C48.3208 8.24214 48.4313 8.31826 48.5 8.36403C49 8.69736 50.7857 11.2857 50.9788 12.6964V14.1071Z" fill="black"/>
<path d="M22.6633 22.5714H39.5919H56.5205C56.5205 21.6884 56.5423 20.7624 56.5647 19.8133C56.6087 17.9499 56.6547 15.9975 56.5416 14.1071H50.9788H27.9141H22.6422C22.5291 15.9975 22.5751 17.9499 22.6191 19.8133C22.6415 20.7624 22.6633 21.6884 22.6633 22.5714Z" fill="black"/>
<path fill-rule="evenodd" clip-rule="evenodd" d="M63.4821 28.2143V79C63.4821 82.1165 62.3665 83.2321 59.25 83.2321H19.75C16.6335 83.2321 15.5179 82.1165 15.5179 79V28.2143L63.4821 28.2143ZM28.2143 33.8571H22.5714V76.1786H28.2143V33.8571ZM56.4286 33.8571H50.7857V76.1786H56.4286V33.8571ZM42.3214 33.8571H36.6786V76.1786H42.3214V33.8571Z" fill="white"/>
</svg>
