<svg width="32" height="27" viewBox="0 0 32 27" fill="none" xmlns="http://www.w3.org/2000/svg">
<path d="M14.1 12V17H15.1V12H18.1V17H19.1V12H22.1V17H23.1V12H26.1V17H27.1V12H28.7061L28.9384 11H27.1V6H26.1V11H23.1V6H22.1V11H19.1V6H18.1V11H15.1V6H14.1V11H11.1V6H10.1V11H8.84242L9.19091 12H10.1L10.0621 14.5L10.9333 17H11.1V12H14.1Z" fill="black"/>
<path fill-rule="evenodd" clip-rule="evenodd" d="M32 4L29 19H11.6L13 22H25.4V24H16.5H13H11.5L9.5 19L5 4L3 2H0V0H3L7.5 4H32ZM14.1 17H11.1H10.9333L10.0621 14.5L9.19091 12L8.84242 11L7.1 6H10.1H11.1H14.1H15.1H18.1H19.1H22.1H23.1H26.1H27.1H30.1L28.9384 11L28.7061 12L27.5444 17H27.1H26.1H23.1H22.1H19.1H18.1H15.1H14.1Z" fill="black"/>
<path fill-rule="evenodd" clip-rule="evenodd" d="M11.1 17H10.9333L10.0621 14.5L10.1 12H9.19091L8.84242 11H10.1V6H11.1V11H14.1V6H15.1V11H18.1V6H19.1V11H22.1V6H23.1V11H26.1V6H27.1V11H28.9384L28.7061 12H27.1V17H26.1V12H23.1V17H22.1V12H19.1V17H18.1V12H15.1V17H14.1V12H11.1V17Z" fill="black"/>
<path d="M16 24C16 25.6569 14.6569 27 13 27C11.3431 27 10 25.6569 10 24C10 22.3431 11.3431 21 13 21C14.6569 21 16 22.3431 16 24Z" fill="black"/>
<path d="M28 24C28 25.6569 26.6569 27 25 27C23.3431 27 22 25.6569 22 24C22 22.3431 23.3431 21 25 21C26.6569 21 28 22.3431 28 24Z" fill="black"/>
</svg>
