<svg width="32" height="32" viewBox="0 0 32 32" fill="none" xmlns="http://www.w3.org/2000/svg">
<path fill-rule="evenodd" clip-rule="evenodd" d="M26.1333 32H5.86666C1.59998 32 3.25521e-05 29.8667 0 26.1333V1.16898C0 0.102311 0.533333 0.102311 0.533333 0.102311C0.533333 0.102311 0.913244 -0.0511437 1.6 0.635644C2.28675 1.32243 4.26666 3.30231 4.26666 3.30231L6.93333 0L9.59999 3.30231L12.8 0L15.4667 3.30231L18.1333 0L21.3333 3.30231C21.3333 3.30231 23.4667 1.06667 24 0.533333C24.5333 0 25.0667 0 25.0667 0.533333C25.0667 1.06667 25.0667 5.76435 25.0667 6.4C25.0667 7.03564 24.5333 6.93333 24.5333 6.93333C24.5333 6.93333 24 7.03564 24 6.4C24 5.76435 24 2.23564 24 2.23564L21.3333 4.8L18.1333 1.58678L15.4667 4.90231L12.8 1.58678L9.59999 4.90231L6.93333 1.58678C6.93333 1.58678 5.33333 3.73333 4.8 4.26666C4.26666 4.8 3.85331 4.48892 3.2 3.83561C2.54669 3.1823 1.0667 1.58678 1.0667 1.58678V26.1333C1.0667 26.1333 1.06667 29.3202 2.66667 30.3868C4.26666 31.0356 5.48966 31.3103 7.46669 29.3333C7.96027 28.8398 7.97119 28.2602 7.98233 27.6684C7.98527 27.5127 7.98822 27.3561 7.99998 27.2C8.03656 26.7147 8.03379 26.2342 8.03128 25.7988C8.02538 24.7746 8.02092 24 8.53336 24H20.8H30.9333C32 24 32 24.5333 32 26.6667C32 28.8 30.4 32 26.1333 32ZM30.9333 25.0667H9.06671V28.2667C9.06678 29.3333 7.46665 30.9333 7.46665 30.9333H26.6666C29.8666 30.9333 30.9333 27.7333 30.9333 27.2V25.0667Z" fill="black"/>
<path d="M3.2 9.06666C3.2 8.77211 3.43878 8.53333 3.73333 8.53333H13.3333C13.6279 8.53333 13.8667 8.77211 13.8667 9.06666C13.8667 9.36121 13.6279 9.6 13.3333 9.6H3.73333C3.43878 9.6 3.2 9.36121 3.2 9.06666Z" fill="black"/>
<path d="M3.2 15.4667C3.2 15.1721 3.41707 14.9333 3.68485 14.9333H13.3818C13.6496 14.9333 13.8667 15.1721 13.8667 15.4667C13.8667 15.7612 13.6496 16 13.3818 16H3.68485C3.41707 16 3.2 15.7612 3.2 15.4667Z" fill="black"/>
<path d="M3.2 13.3333C3.2 13.0388 3.41707 12.8 3.68485 12.8H13.3818C13.6496 12.8 13.8667 13.0388 13.8667 13.3333C13.8667 13.6279 13.6496 13.8667 13.3818 13.8667H3.68485C3.41707 13.8667 3.2 13.6279 3.2 13.3333Z" fill="black"/>
<path d="M3.2 17.6C3.2 17.3054 3.41707 17.0667 3.68485 17.0667H13.3818C13.6496 17.0667 13.8667 17.3054 13.8667 17.6C13.8667 17.8945 13.6496 18.1333 13.3818 18.1333H3.68485C3.41707 18.1333 3.2 17.8945 3.2 17.6Z" fill="black"/>
<path d="M3.2 11.2C3.2 10.9054 3.41707 10.6667 3.68485 10.6667H13.3818C13.6496 10.6667 13.8667 10.9054 13.8667 11.2C13.8667 11.4945 13.6496 11.7333 13.3818 11.7333H3.68485C3.41707 11.7333 3.2 11.4945 3.2 11.2Z" fill="black"/>
<path d="M3.2 19.7333C3.2 19.4388 3.41707 19.2 3.68485 19.2H13.3818C13.6496 19.2 13.8667 19.4388 13.8667 19.7333C13.8667 20.0279 13.6496 20.2667 13.3818 20.2667H3.68485C3.41707 20.2667 3.2 20.0279 3.2 19.7333Z" fill="black"/>
<path d="M14.9333 11.2C14.9333 10.9054 15.1721 10.6667 15.4667 10.6667H17.0667C17.3612 10.6667 17.6 10.9054 17.6 11.2C17.6 11.4945 17.3612 11.7333 17.0667 11.7333H15.4667C15.1721 11.7333 14.9333 11.4945 14.9333 11.2Z" fill="black"/>
<path d="M14.9333 9.06666C14.9333 8.77211 15.1721 8.53333 15.4667 8.53333H18.1333C18.4279 8.53333 18.6667 8.77211 18.6667 9.06666C18.6667 9.36121 18.4279 9.6 18.1333 9.6H15.4667C15.1721 9.6 14.9333 9.36121 14.9333 9.06666Z" fill="black"/>
<path d="M14.9333 17.6C14.9333 17.3054 15.1721 17.0667 15.4667 17.0667H16.5333C16.8279 17.0667 17.0667 17.3054 17.0667 17.6C17.0667 17.8945 16.8279 18.1333 16.5333 18.1333H15.4667C15.1721 18.1333 14.9333 17.8945 14.9333 17.6Z" fill="black"/>
<path d="M14.9333 13.3333C14.9333 13.0388 15.1721 12.8 15.4667 12.8H16.5333C16.8279 12.8 17.0667 13.0388 17.0667 13.3333C17.0667 13.6279 16.8279 13.8667 16.5333 13.8667H15.4667C15.1721 13.8667 14.9333 13.6279 14.9333 13.3333Z" fill="black"/>
<path d="M14.9333 19.7333C14.9333 19.4388 15.1721 19.2 15.4667 19.2H17.6C17.8945 19.2 18.1333 19.4388 18.1333 19.7333C18.1333 20.0279 17.8945 20.2667 17.6 20.2667H15.4667C15.1721 20.2667 14.9333 20.0279 14.9333 19.7333Z" fill="black"/>
<path fill-rule="evenodd" clip-rule="evenodd" d="M25.0667 21.8667C28.8958 21.8667 32 18.7625 32 14.9333C32 11.1042 28.8958 8 25.0667 8C21.2375 8 18.1333 11.1042 18.1333 14.9333C18.1333 18.7625 21.2375 21.8667 25.0667 21.8667ZM25.0667 20.8C28.3067 20.8 30.9333 18.1734 30.9333 14.9333C30.9333 11.6933 28.3067 9.06666 25.0667 9.06666C21.8266 9.06666 19.2 11.6933 19.2 14.9333C19.2 18.1734 21.8266 20.8 25.0667 20.8Z" fill="black"/>
<path d="M27.4723 16.2133C27.4723 16.7125 27.3155 17.1349 27.0019 17.4805C26.6883 17.8197 26.2531 18.0469 25.6963 18.1621V19.6789H24.6019V18.2197C23.7571 18.1493 23.0627 17.8485 22.5187 17.3173L23.2963 16.4725C23.7571 16.9013 24.2883 17.1157 24.8899 17.1157C25.2035 17.1157 25.4499 17.0453 25.6291 16.9045C25.8083 16.7637 25.8979 16.5717 25.8979 16.3285C25.8979 16.1685 25.8659 16.0373 25.8019 15.9349C25.7379 15.8261 25.6227 15.7301 25.4563 15.6469C25.2899 15.5573 25.0499 15.4645 24.7363 15.3685C24.0323 15.1445 23.5299 14.8789 23.2291 14.5717C22.9347 14.2645 22.7875 13.8709 22.7875 13.3909C22.7875 12.9109 22.9539 12.5109 23.2867 12.1909C23.6195 11.8645 24.0579 11.6629 24.6019 11.5861V10.1653H25.6963V11.5861C26.3299 11.6885 26.8611 11.9477 27.2899 12.3637L26.5891 13.1893C26.1667 12.8309 25.7027 12.6517 25.1971 12.6517C24.9283 12.6517 24.7171 12.7061 24.5635 12.8149C24.4099 12.9237 24.3331 13.0773 24.3331 13.2757C24.3331 13.4165 24.3651 13.5317 24.4291 13.6213C24.4995 13.7109 24.6211 13.7973 24.7939 13.8805C24.9667 13.9573 25.2259 14.0501 25.5715 14.1589C26.2179 14.3637 26.6947 14.6197 27.0019 14.9269C27.3155 15.2341 27.4723 15.6629 27.4723 16.2133Z" fill="black"/>
</svg>
