<svg width="32" height="33" viewBox="0 0 32 33" fill="none" xmlns="http://www.w3.org/2000/svg">
<path d="M16 32.884H32V28.3537C32 26.0282 21.8438 22.9122 21 22.9122C20.1562 22.9122 20.1562 22.0975 20.1562 21.2625C20.1562 19.2577 21.6689 17.2529 22.8113 15.7388L22.8474 15.6909C23.2287 15.1854 23.7608 14.921 23.7608 12.6519C23.7608 11.1324 23 11.1894 23 11.1894C23 11.1894 23 7.64385 22.9634 5.61782C22.9267 3.59178 20 0.883993 16 0.973977C12 0.883993 9.07327 3.56355 9.03664 5.58959C9 7.61562 9 11.1612 9 11.1612C9 11.1612 8.23916 11.1041 8.23916 12.6237C8.23916 14.8927 8.77128 15.1572 9.15262 15.6627L9.18874 15.7106C10.3311 17.2247 11.8438 19.2295 11.8438 21.2343C11.8438 22.0693 11.8438 22.884 11 22.884C10.1562 22.884 -9.53674e-07 26 -9.53674e-07 28.3254V32.884H16Z" fill="black"/>
</svg>
