<svg width="32" height="24" viewBox="0 0 32 24" fill="none" xmlns="http://www.w3.org/2000/svg">
<path fill-rule="evenodd" clip-rule="evenodd" d="M32 4C32 1.79086 30.2091 0 28 0H4C1.79086 0 0 1.79086 0 4V20C0 22.2091 1.79086 24 4 24H28C30.2091 24 32 22.2091 32 20V4ZM25 2.60597H7C4.79086 2.60597 3 3.79086 3 6V17.5C3 19.7091 4.79086 21.5 7 21.5H25C27.2091 21.5 29 19.7091 29 17.5V6C29 3.79086 27.2091 2.60597 25 2.60597Z" fill="black"/>
<path d="M3.22096 2.85269L3.80228 2.46514C4.20587 2.19609 4.74435 2.25545 5.07963 2.60597L15.2046 13.1912C15.3933 13.3884 15.6544 13.5 15.9273 13.5H16.0727C16.3456 13.5 16.6067 13.3884 16.7954 13.1912L26.9204 2.60597C27.2557 2.25545 27.7941 2.19609 28.1977 2.46514L28.779 2.85269C28.9238 2.94922 29.0409 3.08187 29.1188 3.23753L29.6777 4.35533C29.8702 4.74032 29.7947 5.20529 29.4903 5.50965L23 12L29.3408 18.7937C29.7085 19.1877 29.6979 19.8021 29.3169 20.1831L28.2319 21.2681C27.8318 21.6682 27.1798 21.6569 26.7937 21.2433L20.5 14.5L17.2929 17.7071C17.1054 17.8946 16.851 18 16.5858 18H15.4142C15.149 18 14.8946 17.8946 14.7071 17.7071L11.5 14.5L5.20625 21.2433C4.8202 21.6569 4.16817 21.6682 3.76809 21.2681L2.68314 20.1831C2.3021 19.8021 2.29151 19.1877 2.6592 18.7937L9 12L2.50965 5.50965C2.20529 5.20529 2.12984 4.74032 2.32233 4.35533L2.88124 3.23753C2.95906 3.08187 3.07616 2.94922 3.22096 2.85269Z" fill="black"/>
</svg>
