<svg width="32" height="32" viewBox="0 0 32 32" fill="none" xmlns="http://www.w3.org/2000/svg">
<path fill-rule="evenodd" clip-rule="evenodd" d="M16 32C24.8366 32 32 24.8366 32 16C32 7.16344 24.8366 0 16 0C7.16344 0 0 7.16344 0 16C0 24.8366 7.16344 32 16 32ZM24.3228 12.8889L16.7106 23.1763C16.6813 23.2158 16.6511 23.2542 16.6199 23.2914C15.8107 24.3033 14.3353 24.4919 13.2905 23.7046L8.79255 20.3153C7.72898 19.5139 7.51446 18.0048 8.31341 16.9446C9.11235 15.8845 10.6222 15.6747 11.6858 16.4761L14.2432 18.4032L17.3447 14.2118L20.4462 10.0203C21.2383 8.94984 22.7483 8.72418 23.8188 9.51631C24.8893 10.3084 25.1149 11.8184 24.3228 12.8889Z" fill="black"/>
<path d="M24.3228 12.8889L16.7106 23.1763C16.6813 23.2158 16.6511 23.2542 16.6199 23.2914C15.8107 24.3033 14.3353 24.4919 13.2905 23.7046L8.79255 20.3153C7.72898 19.5139 7.51446 18.0048 8.31341 16.9446C9.11235 15.8845 10.6222 15.6747 11.6858 16.4761L14.2432 18.4032L17.3447 14.2118L20.4462 10.0203C21.2383 8.94984 22.7483 8.72418 23.8188 9.51631C24.8893 10.3084 25.1149 11.8184 24.3228 12.8889Z" fill="white"/>
</svg>
