<svg width="31" height="31" viewBox="0 0 31 31" fill="none" xmlns="http://www.w3.org/2000/svg">
<path fill-rule="evenodd" clip-rule="evenodd" d="M15.5616 19.052C15.4583 19.0566 15.3544 19.0589 15.25 19.0589C15.3542 19.0551 15.458 19.0528 15.5616 19.052ZM15.25 19.0589C15.1656 19.0589 15.0815 19.0574 14.9978 19.0544C15.0816 19.0549 15.1657 19.0565 15.25 19.0589Z" fill="black"/>
<path fill-rule="evenodd" clip-rule="evenodd" d="M23.9203 24.9381C23.9304 24.9291 23.9405 24.9201 23.9505 24.911Z" fill="black"/>
<path d="M25.4856 23.2677C24.3142 20.315 22.3633 18.732 19.2239 17.7924C18.1815 18.5337 16.9231 18.9912 15.5616 19.052C19.9862 19.0188 23.7761 21.7758 23.9505 24.911C24.5081 24.4087 25.0219 23.8588 25.4856 23.2677Z" fill="black"/>
<path fill-rule="evenodd" clip-rule="evenodd" d="M15.25 5.33012C11.4589 5.33012 8.38556 8.40342 8.38556 12.1945C8.38556 14.5047 9.52672 16.5483 11.2761 17.7924C12.3336 18.5445 13.6135 19.0044 14.9978 19.0544C15.0816 19.0549 15.1657 19.0565 15.25 19.0589C15.3542 19.0551 15.458 19.0528 15.5616 19.052C16.9231 18.9912 18.1815 18.5337 19.2239 17.7924L19.2372 17.7828C19.451 17.63 19.6558 17.4651 19.8503 17.2894C21.2407 16.0332 22.1144 14.2159 22.1144 12.1945C22.1144 8.40342 19.0411 5.33012 15.25 5.33012ZM15.25 17.2839C18.0582 17.2839 20.3347 15.0074 20.3347 12.1991C20.3347 9.39092 18.0582 7.1144 15.25 7.1144C12.4417 7.1144 10.1652 9.39092 10.1652 12.1991C10.1652 15.0074 12.4417 17.2839 15.25 17.2839Z" fill="black"/>
<path d="M11.2761 17.7924C8.06634 18.7702 6.18418 20.2627 4.99223 23.2348C5.45648 23.8304 5.97148 24.3846 6.53073 24.8908C6.82574 21.681 10.5444 19.0247 14.9978 19.0544C13.6135 19.0044 12.3336 18.5445 11.2761 17.7924Z" fill="black"/>
<path fill-rule="evenodd" clip-rule="evenodd" d="M30.2518 15.25C30.2518 23.5343 23.5361 30.25 15.2518 30.25C6.96753 30.25 0.251801 23.5343 0.251801 15.25C0.251801 6.96573 6.96753 0.25 15.2518 0.25C23.5361 0.25 30.2518 6.96573 30.2518 15.25ZM2.2518 15.25C2.2518 8.0703 8.0721 2.25 15.2518 2.25C22.4315 2.25 28.2518 8.0703 28.2518 15.25C28.2518 17.9424 27.4333 20.4436 26.0316 22.5184C25.8584 22.7749 25.6762 23.0248 25.4856 23.2677C25.0219 23.8588 24.5081 24.4087 23.9505 24.911L23.9203 24.9381C21.6202 26.9976 18.5822 28.25 15.2518 28.25C12.1107 28.25 9.22976 27.136 6.98259 25.2814C6.82897 25.1547 6.67831 25.0244 6.53073 24.8908C5.97148 24.3846 5.45648 23.8304 4.99223 23.2348C3.27486 21.0313 2.2518 18.2601 2.2518 15.25Z" fill="black"/>
</svg>
