<svg width="773" height="773" viewBox="0 0 773 773" fill="none" xmlns="http://www.w3.org/2000/svg">
<path d="M773 386.5C773 599.958 599.958 773 386.5 773C173.042 773 0 599.958 0 386.5C0 173.042 173.042 0 386.5 0C599.958 0 773 173.042 773 386.5Z" fill="black"/>
<path d="M689 386C689 553.342 553.342 689 386 689C218.658 689 83 553.342 83 386C83 218.658 218.658 83 386 83C553.342 83 689 218.658 689 386Z" fill="white"/>
<path d="M277 188C317.004 155.683 342.862 148.393 392.5 146.5C471.095 150.59 534.018 182.422 537.5 283C536.221 301.004 537.941 332.304 497 374C471.185 403.011 429.803 428.955 426 459.5V502.5H343V459.5C344.554 421.711 357.978 401.732 396.5 367.5C434.117 331.367 450.774 311.959 451 283C446.113 251.033 433.217 231.842 392.5 225C355.68 223.61 327.791 248.703 319 292.5L232 286C237.43 238.982 249.24 218.934 277 188Z" fill="black"/>
<path d="M440 596C440 626.376 415.376 651 385 651C354.624 651 330 626.376 330 596C330 565.624 354.624 541 385 541C415.376 541 440 565.624 440 596Z" fill="black"/>
</svg>
