<svg width="198" height="198" viewBox="0 0 198 198" fill="none" xmlns="http://www.w3.org/2000/svg">
<rect x="5" y="5" width="188" height="185.914" rx="28" fill="#FF0000" stroke="black" stroke-width="10"/>
<path d="M128.854 54.9958L99.9857 83.5602L71.1172 54.9958C65.4464 49.3846 56.2521 49.3846 50.5813 54.9958C44.9104 60.6069 44.9104 69.7043 50.5813 75.3154L79.4498 103.88L49.5813 133.434C43.9104 139.045 43.9104 148.142 49.5813 153.753C55.2521 159.364 64.4464 159.364 70.1172 153.753L99.9857 124.199L129.854 153.753C135.525 159.364 144.719 159.364 150.39 153.753C156.061 148.142 156.061 139.045 150.39 133.434L120.522 103.88L149.39 75.3154C155.061 69.7043 155.061 60.6069 149.39 54.9958C143.719 49.3847 134.525 49.3846 128.854 54.9958Z" fill="white" stroke="black" stroke-width="8"/>
</svg>
